<svg width="16" height="18" viewBox="0 0 16 18" fill="none" xmlns="http://www.w3.org/2000/svg">
<path d="M8.51124 0C8.83985 0.0455463 9.1704 0.0821711 9.49755 0.138517C12.6952 0.688359 15.2919 3.20655 15.8689 6.31309C16.5782 10.1333 14.3518 13.801 10.5694 15.0514C10.4809 15.0805 10.3915 15.1514 10.338 15.2261C9.77463 16.0168 9.2195 16.8132 8.66048 17.6067C8.29103 18.1312 7.71354 18.1312 7.34361 17.6062C6.78459 16.8127 6.22994 16.0163 5.66557 15.2256C5.60919 15.1467 5.51099 15.0791 5.41717 15.0448C2.37366 13.9235 0.524512 11.8308 0.0758354 8.70639C-0.439437 5.11621 1.71401 1.74485 5.22954 0.477062C5.90765 0.232427 6.60959 0.0807625 7.33389 0.0305207C7.38736 0.0267643 7.43986 0.0107996 7.49236 0.000469549C7.83166 0 8.17145 0 8.51124 0ZM8.00423 16.0361C8.44805 15.4045 8.87728 14.8016 9.2963 14.1926C9.43776 13.9869 9.61859 13.8583 9.86407 13.7864C13.0826 12.8431 15.0173 9.81687 14.4471 6.62581C13.8045 3.02859 10.0595 0.690707 6.39376 1.59882C2.67505 2.52007 0.551734 6.28868 1.8161 9.78729C2.54283 11.7984 4.0026 13.1187 6.10015 13.7733C6.36848 13.8569 6.5707 13.9893 6.72577 14.2175C7.08452 14.7462 7.45736 15.266 7.82486 15.7895C7.87833 15.8651 7.93423 15.9398 8.00423 16.0361Z" fill="#8A8A8A"/>
<path d="M8.80291 8.78291C8.80291 9.38628 8.79854 9.98918 8.80534 10.5926C8.80729 10.779 8.72902 10.9095 8.57055 10.9973C8.20646 11.1997 7.83313 11.2077 7.46174 11.017C7.28772 10.9278 7.20362 10.7865 7.20411 10.5874C7.208 9.38112 7.20848 8.17437 7.20411 6.9681C7.20314 6.74506 7.30522 6.59481 7.50938 6.51639C7.85112 6.38586 8.19625 6.38586 8.53264 6.53893C8.71152 6.62016 8.80631 6.75305 8.80437 6.95589C8.79902 7.5649 8.80291 8.1739 8.80291 8.78291Z" fill="#8A8A8A"/>
<path d="M8.00823 5.5116C7.57559 5.51582 7.18719 5.20827 7.16338 4.84343C7.13567 4.41332 7.56684 4.05036 8.05927 4.09215C8.12538 4.09779 8.19198 4.10718 8.25566 4.12455C8.61878 4.22269 8.87155 4.54527 8.83266 4.85799C8.78794 5.21907 8.42385 5.50737 8.00823 5.5116Z" fill="#8A8A8A"/>
</svg>
