<svg width="18" height="17" viewBox="0 0 18 17" fill="none" xmlns="http://www.w3.org/2000/svg">
<path d="M0 15.2063C0.0528197 14.9645 0.0852157 14.717 0.162332 14.4822C0.39826 13.7644 0.860608 13.2023 1.52297 12.7862C1.55607 12.7653 1.58705 12.741 1.63318 12.7084C0.881384 12.106 0.507421 11.35 0.577143 10.4266C0.631371 9.71085 0.963783 9.11381 1.53705 8.6405C2.63746 7.73179 4.34635 7.81761 5.35627 8.80548C6.38871 9.81563 6.47745 11.6161 5.08055 12.7057C5.24992 12.8321 5.42704 12.9499 5.58586 13.0862C6.24681 13.6537 6.62816 14.3562 6.68063 15.2027C6.70458 15.5888 6.69119 15.9767 6.70774 16.3632C6.72077 16.6688 6.60563 16.8887 6.29293 16.9991C4.32417 16.9991 2.35576 16.9991 0.386992 16.9991C0.258112 16.8774 0.129232 16.7556 0.000352131 16.6339C0 16.1579 0 15.682 0 15.2063ZM1.06414 15.9926C2.59521 15.9926 4.11465 15.9926 5.6341 15.9926C5.6341 15.7345 5.65135 15.486 5.63093 15.2399C5.55452 14.3129 4.85166 13.5492 3.88471 13.3257C2.9417 13.1079 1.93672 13.4967 1.4124 14.2707C1.05428 14.7992 1.02541 15.3816 1.06414 15.9926ZM3.35123 12.2677C4.29459 12.2683 5.08759 11.518 5.08336 10.6289C5.07914 9.74345 4.29494 9.00105 3.36003 8.99773C2.41632 8.9944 1.62086 9.73946 1.6191 10.6289C1.61699 11.5199 2.40682 12.2673 3.35123 12.2677Z" fill="#8A8A8A"/>
<path d="M0 16.6339C0.12888 16.7556 0.25776 16.8774 0.38664 16.9991C0.25776 16.9991 0.12888 16.9991 0 16.9991C0 16.8774 0 16.7556 0 16.6339Z" fill="#8A8A8A"/>
<path d="M6.78052 6.81433C6.78052 5.25404 6.77699 3.69374 6.78192 2.13377C6.78509 1.10067 7.46576 0.287095 8.51687 0.0555947C8.69153 0.0170113 8.87605 0.00304148 9.05634 0.00304148C11.2765 -0.000284672 13.4967 -0.000949902 15.7169 0.0013784C17.0349 0.00270886 17.9969 0.915072 17.9984 2.16304C18.0005 4.25453 18.0005 6.34568 17.9984 8.43716C17.9973 9.6868 17.0402 10.5925 15.7151 10.5945C13.7819 10.5978 11.8487 10.5938 9.91554 10.5995C9.81412 10.5998 9.69581 10.6364 9.61447 10.693C8.96302 11.1447 8.32003 11.6067 7.67176 12.0623C7.39358 12.2579 7.06504 12.2396 6.89777 11.9981C6.82101 11.887 6.78615 11.7307 6.78544 11.5947C6.7777 10.0011 6.78052 8.40756 6.78052 6.81433ZM7.83515 10.6943C7.91015 10.6451 7.95804 10.6155 8.00347 10.5835C8.37849 10.3184 8.75667 10.057 9.12571 9.78492C9.306 9.65221 9.49932 9.59666 9.72644 9.59699C11.7181 9.60065 13.7094 9.60032 15.7011 9.59832C16.4493 9.59766 16.9423 9.13998 16.943 8.44082C16.9458 6.34435 16.9458 4.24754 16.943 2.15107C16.942 1.46954 16.4486 0.998891 15.7296 0.997893C13.5038 0.994235 11.2779 0.993902 9.05211 1.00155C8.86478 1.00222 8.6616 1.04047 8.49363 1.1163C8.02248 1.32951 7.83268 1.70902 7.83339 2.19597C7.83726 4.96732 7.83515 7.73901 7.83515 10.5104C7.83515 10.5599 7.83515 10.6095 7.83515 10.6943Z" fill="#8A8A8A"/>
<path d="M12.3921 3.66125C11.4611 3.66125 10.5301 3.66424 9.59904 3.65958C9.1955 3.65759 8.94373 3.33894 9.06979 3.00333C9.13529 2.82871 9.26663 2.71795 9.46066 2.68236C9.52897 2.66972 9.6001 2.66573 9.67017 2.66573C11.4854 2.66473 13.3006 2.6644 15.1162 2.6654C15.5582 2.66573 15.8237 2.95145 15.7159 3.30402C15.6455 3.53386 15.4515 3.65992 15.1511 3.66058C14.231 3.66258 13.3116 3.66125 12.3921 3.66125Z" fill="#8A8A8A"/>
<path d="M12.3727 5.79945C11.5061 5.79945 10.6395 5.79945 9.77293 5.79945C9.73208 5.79945 9.69088 5.79978 9.65004 5.79945C9.27889 5.79413 9.03557 5.59489 9.03662 5.29786C9.03803 4.99884 9.27748 4.80426 9.65391 4.80393C11.4808 4.80293 13.308 4.8026 15.1348 4.80426C15.5574 4.8046 15.8151 5.08133 15.718 5.42393C15.6613 5.62416 15.5225 5.74756 15.3053 5.78381C15.2253 5.79712 15.1422 5.79912 15.0605 5.79912C14.1647 5.79978 13.2689 5.79945 12.3727 5.79945Z" fill="#8A8A8A"/>
<path d="M10.9667 6.93685C11.423 6.93685 11.8794 6.93519 12.3354 6.93752C12.6808 6.93918 12.9097 7.13875 12.9097 7.43312C12.9097 7.72681 12.6801 7.93137 12.3354 7.93204C11.4286 7.9347 10.5219 7.93437 9.61517 7.93204C9.27642 7.93104 9.03662 7.7195 9.03662 7.43312C9.03662 7.14341 9.2722 6.93918 9.61517 6.93752C10.0659 6.93519 10.5163 6.93685 10.9667 6.93685Z" fill="#8A8A8A"/>
</svg>
