<svg width="18" height="18" viewBox="0 0 18 18" fill="none" xmlns="http://www.w3.org/2000/svg">
<path d="M6.14053 4.41255L6.87267 4.2042C7.20594 4.10921 7.56442 4.13205 7.88118 4.26845C8.19794 4.40486 8.45134 4.64551 8.59406 4.94548L9.04966 5.90302C9.17242 6.16098 9.20662 6.44877 9.14746 6.72602C9.08829 7.00327 8.93873 7.25606 8.71976 7.44892L7.92367 8.1502C7.91384 8.15888 7.90577 8.16919 7.89986 8.18062C7.8165 8.34146 7.94308 8.77106 8.33958 9.42025C8.7868 10.152 9.13213 10.4411 9.29223 10.3965L10.3371 10.0944C10.6232 10.0119 10.9295 10.016 11.2131 10.1062C11.4966 10.1964 11.7432 10.3681 11.9182 10.5974L12.5657 11.4445C12.7689 11.7105 12.8631 12.0371 12.8306 12.3638C12.7982 12.6904 12.6413 12.9948 12.3892 13.2204L11.8322 13.7184C11.6385 13.8917 11.4033 14.0182 11.1466 14.0871C10.8899 14.1559 10.6195 14.1651 10.3582 14.1138C8.80709 13.8088 7.41736 12.6287 6.17714 10.5995C4.93649 8.56897 4.54969 6.83973 5.04807 5.41759C5.1315 5.1795 5.27436 4.96388 5.46458 4.78894C5.65481 4.61401 5.88681 4.48491 6.14098 4.41255H6.14053ZM6.33195 5.0109C6.17944 5.0543 6.04023 5.13175 5.92608 5.23669C5.81193 5.34164 5.72619 5.471 5.67612 5.61385C5.24654 6.83931 5.59452 8.39605 6.75006 10.287C7.90471 12.1766 9.15639 13.2392 10.4928 13.5017C10.6496 13.5325 10.8119 13.527 10.966 13.4856C11.1201 13.4442 11.2613 13.3683 11.3775 13.2642L11.9341 12.7666C12.0699 12.6452 12.1544 12.4813 12.1719 12.3054C12.1894 12.1295 12.1388 11.9536 12.0293 11.8104L11.3819 10.9628C11.2877 10.8394 11.1549 10.7469 11.0023 10.6984C10.8496 10.6498 10.6847 10.6476 10.5307 10.692L9.48321 10.9949C8.90367 11.1578 8.35854 10.7016 7.76666 9.73235C7.2652 8.91232 7.09143 8.31979 7.30577 7.90603C7.34723 7.82602 7.40368 7.75394 7.47249 7.6931L8.26857 6.99182C8.38652 6.88797 8.46709 6.75184 8.49897 6.60252C8.53085 6.45321 8.51243 6.29821 8.44631 6.15929L7.99071 5.20216C7.91386 5.0406 7.7774 4.91098 7.60679 4.83752C7.43619 4.76407 7.24312 4.75179 7.06364 4.80298L6.33151 5.01132L6.33195 5.0109Z" fill="#8A8A8A" stroke="#8A8A8A" stroke-width="0.5"/>
<circle cx="9" cy="9" r="8.5" stroke="#8A8A8A"/>
</svg>
