<svg width="28" height="24" viewBox="0 0 28 24" fill="none" xmlns="http://www.w3.org/2000/svg">
<path d="M7.04763 4.19754C6.7897 3.89743 6.5 3.61889 6.27871 3.2899C5.82672 2.61657 5.65569 1.85222 5.78518 1.0367C5.88989 0.37726 6.285 0.011352 6.92338 0.000751292C7.33314 -0.00619401 7.74674 0.0453474 8.15372 0.106393C8.7907 0.201799 9.41616 0.121015 10.0465 0.0453474C10.3498 0.00879322 10.6633 -0.0109461 10.9648 0.0259737C11.5184 0.0943301 11.8643 0.477053 11.933 1.05826C12.0772 2.27588 11.6678 3.26358 10.7749 4.04291C10.7481 4.06631 10.7198 4.08751 10.6929 4.11054C10.6891 4.11383 10.6887 4.12151 10.6818 4.14198C10.7188 4.16025 10.7564 4.18109 10.7959 4.19827C12.0353 4.73087 13.0297 5.60414 13.8929 6.65508C15.193 8.23824 16.1207 10.0477 16.8163 11.9942C17.2324 13.1577 17.5465 14.3512 17.7144 15.5823C17.906 16.9882 17.9182 18.385 17.4467 19.7451C16.958 21.1547 16.0352 22.1544 14.7763 22.8354C13.7836 23.3724 12.718 23.6546 11.62 23.8162C10.5352 23.9756 9.44374 24.0223 8.34952 23.9909C6.92198 23.95 5.50945 23.799 4.14683 23.3147C3.10217 22.9433 2.16188 22.3946 1.41216 21.5283C0.680588 20.6809 0.27606 19.675 0.100846 18.5568C-0.0743686 17.4364 -0.00456219 16.3215 0.18217 15.2142C0.532249 13.1372 1.21356 11.1798 2.18631 9.33487C2.94441 7.89719 3.8512 6.57722 5.04838 5.4985C5.63754 4.96737 6.28151 4.52397 7.00714 4.2202C7.03297 4.20924 7.05601 4.19279 7.04763 4.19754ZM9.28667 22.9736C9.66817 22.9451 10.4053 22.9078 11.139 22.831C12.1425 22.7261 13.1197 22.494 14.0447 22.0594C15.6506 21.3053 16.579 20.0134 16.8027 18.1857C16.9228 17.2061 16.8446 16.2275 16.6691 15.2607C16.2432 12.9157 15.408 10.74 14.1595 8.74269C13.4475 7.60403 12.6123 6.58051 11.5334 5.79898C10.9009 5.34059 10.2168 5.00429 9.44828 4.88659C8.47308 4.73744 7.58165 5.00392 6.74502 5.51057C5.62149 6.19084 4.75275 7.15368 4.00652 8.24848C2.75279 10.0868 1.89522 12.1163 1.37097 14.3015C1.06522 15.5761 0.889309 16.868 1.04533 18.1865C1.18773 19.3891 1.64078 20.4283 2.53151 21.2314C3.18245 21.8181 3.94683 22.1782 4.76042 22.4319C6.1213 22.8559 7.52127 22.9531 9.28667 22.9736ZM8.95265 3.71429C9.06678 3.6909 9.28772 3.66494 9.49749 3.59951C10.4507 3.30123 11.1215 2.21411 10.9687 1.24688C10.9439 1.08897 10.872 1.01659 10.7303 1.02208C10.5449 1.02939 10.3589 1.04145 10.175 1.06558C9.56904 1.14417 8.96452 1.23519 8.35127 1.16135C7.93592 1.11163 7.52057 1.05863 7.10417 1.02134C6.80854 0.995026 6.74502 1.06558 6.73385 1.37227C6.68638 2.64435 7.64064 3.70113 8.95265 3.71429Z" fill="#59597C"/>
<path d="M19.9866 2.04773C17.654 2.08794 15.8795 2.89469 14.4314 4.49138C14.3396 4.59263 14.2206 4.68877 14.0966 4.73044C13.911 4.79295 13.7246 4.67963 13.6307 4.49869C13.5333 4.31153 13.5518 4.13278 13.7001 3.96207C14.3343 3.23245 15.054 2.61286 15.8655 2.10841C16.8093 1.52135 17.8236 1.16239 18.9164 1.05638C20.8853 0.865202 22.7087 1.31811 24.347 2.48236C26.206 3.80343 27.3738 5.63041 27.8321 7.93661C28.0792 9.18091 28.052 10.4263 27.7602 11.6644C27.2803 13.7005 26.2294 15.3396 24.6256 16.585C23.3484 17.5767 21.909 18.1254 20.3199 18.2321C20.0763 18.2485 19.8319 18.2606 19.5883 18.2588C19.2787 18.2562 19.062 18.0354 19.0658 17.7448C19.0697 17.4367 19.3063 17.2119 19.6159 17.2115C22.3076 17.2082 24.3973 16.018 25.8782 13.6771C26.5718 12.5808 26.9257 11.3526 26.9888 10.0366C27.0332 9.11695 26.9627 8.20638 26.6667 7.33676C25.7376 4.60543 23.9376 2.86947 21.2242 2.221C20.7457 2.10622 20.248 2.08282 19.9866 2.04773Z" fill="#59597C"/>
<path d="M20.0334 8.59816C20.4795 8.76375 20.7853 9.06422 20.95 9.52225C20.965 9.56355 21.0589 9.59499 21.1161 9.59535C22.07 9.59974 23.0239 9.59718 23.9782 9.60047C24.069 9.60084 24.1663 9.61107 24.2491 9.64653C24.4707 9.74194 24.582 9.98466 24.5335 10.2307C24.4888 10.4569 24.2885 10.6276 24.0546 10.628C23.0543 10.6298 22.0536 10.6309 21.0533 10.6262C20.9371 10.6255 20.869 10.6547 20.8045 10.7644C20.4938 11.2911 19.9308 11.5386 19.3483 11.4198C18.7989 11.3076 18.3689 10.8419 18.2652 10.246C18.1626 9.65823 18.4073 9.07555 18.9043 8.76046C19.0122 8.6921 19.0356 8.61607 19.0352 8.4969C19.0314 7.382 19.0321 6.26746 19.0328 5.15256C19.0328 5.07397 19.0373 4.99391 19.0509 4.91642C19.0973 4.65213 19.3137 4.47082 19.5584 4.48544C19.8083 4.5008 20.008 4.69819 20.03 4.96138C20.0394 5.07616 20.0338 5.19277 20.0338 5.30828C20.0341 6.3318 20.0338 7.35531 20.0338 8.37883C20.0334 8.45194 20.0334 8.52432 20.0334 8.59816Z" fill="#59597C"/>
<path d="M8.57534 17.4671C8.57534 17.0804 8.57534 16.7163 8.57534 16.3519C8.57534 16.0777 8.56766 15.8032 8.57883 15.5298C8.58441 15.3923 8.5352 15.3477 8.41409 15.309C8.05423 15.1946 7.69019 15.0838 7.3457 14.9277C6.56038 14.5717 6.33769 13.7704 6.40122 13.0854C6.47591 12.2775 6.8965 11.7508 7.60433 11.473C7.87379 11.3673 8.16209 11.3114 8.44515 11.25C8.54812 11.2277 8.58476 11.1886 8.57953 11.0851C8.57499 10.9941 8.57464 10.9024 8.57953 10.8113C8.5907 10.6004 8.73729 10.4465 8.92123 10.4469C9.10447 10.4473 9.26224 10.5997 9.27585 10.8033C9.28492 10.9364 9.27759 11.0705 9.27759 11.2222C10.2455 11.367 10.9739 11.8305 11.2908 12.8807C10.9393 12.9596 10.5987 13.0364 10.2479 13.115C10.0793 12.6427 9.8144 12.2911 9.27899 12.2253C9.27899 12.3876 9.27899 12.5371 9.27899 12.6866C9.27899 13.1069 9.28283 13.5273 9.27655 13.9473C9.2748 14.0581 9.3097 14.1049 9.41092 14.136C9.75053 14.2401 10.0898 14.3465 10.4235 14.469C11.0961 14.7157 11.4217 15.2596 11.5135 15.9629C11.6859 17.2811 10.8894 18.1927 9.65664 18.4102C9.53762 18.4314 9.41756 18.4482 9.27899 18.4698C9.27899 18.6559 9.27934 18.8368 9.27899 19.0178C9.27794 19.2886 9.14671 19.4608 8.94217 19.4601C8.72228 19.4593 8.58302 19.2952 8.57534 19.0214C8.5715 18.8876 8.56836 18.7531 8.57674 18.6197C8.58441 18.4961 8.54358 18.4578 8.42281 18.4435C7.70625 18.3598 7.07066 18.0933 6.60715 17.485C6.39284 17.2039 6.23124 16.8888 6.13281 16.5226C6.50034 16.4319 6.85915 16.3435 7.23575 16.2506C7.42912 16.9528 7.83051 17.4017 8.57534 17.4671ZM9.2926 15.4439C9.2926 16.1157 9.2926 16.7872 9.2926 17.4584C9.87967 17.4755 10.3736 17.0497 10.3997 16.5153C10.4287 15.9282 9.97321 15.4866 9.2926 15.4439ZM8.56766 12.2428C8.03155 12.1909 7.56803 12.5513 7.53871 13.0309C7.50416 13.596 7.89543 13.9689 8.56766 14.0047C8.56766 13.4217 8.56766 12.839 8.56766 12.2428Z" fill="#59597C"/>
</svg>
