<svg width="22" height="22" viewBox="0 0 22 22" fill="none" xmlns="http://www.w3.org/2000/svg">
<path d="M21.0217 8.0089C20.9264 8.26174 20.7349 8.33903 20.4763 8.338C19.3247 8.33186 18.1731 8.33852 17.0215 8.33186C16.8751 8.33084 16.7911 8.37946 16.7035 8.4936C16.1966 9.15641 15.5657 9.64367 14.7285 9.81206C14.5437 9.84942 14.3491 9.86273 14.1607 9.85198C13.9943 9.84226 13.8852 9.89498 13.7705 10.0106C12.4832 11.3056 11.1908 12.5949 9.8994 13.8852C9.59114 14.1933 9.38888 14.1948 9.0837 13.8898C6.56851 11.3762 4.05331 8.86211 1.53863 6.34803C1.21143 6.02097 1.21246 5.85719 1.54324 5.52604C2.97852 4.09037 4.4138 2.6547 5.85215 1.2221C5.94688 1.12792 6.06721 1.05985 6.17577 0.979492C6.24387 0.979492 6.31197 0.979492 6.38007 0.979492C6.51218 1.09465 6.65044 1.20367 6.77538 1.32651C7.12562 1.66994 7.4733 2.01645 7.81484 2.36807C7.90291 2.45918 7.97562 2.4776 8.09698 2.43205C8.67048 2.2176 9.24858 2.01594 9.82361 1.8066C10.3741 1.60597 10.9378 1.57065 11.5134 1.65664C12.1314 1.74877 12.6747 2.03846 13.2195 2.31433C13.9354 2.6767 14.6359 3.07081 15.3486 3.44035C15.6144 3.57803 15.9058 3.63638 16.2048 3.63484C16.2811 3.2131 16.382 3.12916 16.7942 3.12813C17.1121 3.12711 17.4301 3.12813 17.7584 3.12813C17.764 3.04215 17.7701 2.98278 17.7712 2.92289C17.7788 2.49194 17.9048 2.36756 18.3385 2.36756C19.0405 2.36705 19.7425 2.37473 20.4446 2.36347C20.6996 2.35937 20.8972 2.42233 21.0206 2.65572C21.0216 4.43943 21.0217 6.22417 21.0217 8.0089ZM8.56807 3.11841C8.88349 3.43216 9.19174 3.69524 9.44674 4.00182C9.86458 4.50392 10.3853 4.79105 11.0131 4.95228C11.6711 5.12118 12.3127 5.35253 12.9599 5.56135C13.2416 5.65195 13.3655 5.86845 13.2856 6.10593C13.2108 6.32858 12.9881 6.41866 12.7106 6.33728C12.5994 6.30503 12.4893 6.26972 12.3793 6.23491C11.3091 5.8966 10.2399 5.55572 9.1687 5.22099C8.77647 5.09815 8.40728 5.24146 8.21578 5.57364C8.0258 5.90325 8.08469 6.30555 8.39499 6.57067C8.54093 6.69556 8.72168 6.79639 8.90346 6.86036C9.89837 7.20943 10.8999 7.53751 11.8938 7.88862C12.0505 7.9439 12.2093 8.05292 12.3163 8.17934C12.9133 8.88617 13.9625 9.22705 14.8079 8.9481C15.4086 8.75002 15.8423 8.33289 16.1838 7.81441C16.2145 7.76732 16.2242 7.69925 16.2248 7.64039C16.2273 6.63926 16.2248 5.63813 16.2289 4.637C16.2294 4.51006 16.1956 4.45734 16.0609 4.44762C15.5074 4.4077 15.0092 4.20502 14.5237 3.94245C13.7106 3.50228 12.8887 3.07695 12.0582 2.66954C11.5436 2.41721 10.9814 2.33583 10.4268 2.49245C9.81235 2.66493 9.2153 2.8973 8.56807 3.11841ZM10.1355 8.14812C10.1027 8.24025 10.0802 8.30371 10.0576 8.36718C9.67666 9.43741 8.48665 10.0849 7.37806 9.82537C6.29917 9.57304 5.57103 8.68042 5.55055 7.5846C5.53007 6.51028 6.22953 5.60179 7.29767 5.30032C7.3842 5.27575 7.47433 5.20256 7.52502 5.12681C7.7114 4.84684 7.94541 4.62778 8.25623 4.49727C8.37809 4.44608 8.50508 4.40719 8.66536 4.34986C8.38219 4.07348 8.12309 3.81398 7.85324 3.56575C7.81791 3.5335 7.72011 3.54067 7.66481 3.5637C7.42722 3.66197 7.20345 3.80477 6.95818 3.87233C6.2198 4.07655 5.51676 3.97367 4.86184 3.56472C4.81627 3.53657 4.71744 3.52275 4.68877 3.54988C4.39076 3.83599 4.10196 4.13182 3.80855 4.42664C4.13576 4.89496 4.29705 5.40064 4.295 5.95392C4.29295 6.50465 4.12039 7.00572 3.83211 7.42388C5.23359 8.82424 6.61459 10.2041 8.00737 11.5958C8.438 11.2887 8.9475 11.129 9.49693 11.13C10.0464 11.131 10.5533 11.2969 10.9824 11.6009C11.305 11.2774 11.6112 10.9708 11.9235 10.6576C11.5426 10.0828 11.3746 9.4415 11.4878 8.73313C11.4949 8.68707 11.4483 8.59852 11.4069 8.58368C10.9931 8.43525 10.5743 8.29655 10.1355 8.14812ZM18.6089 3.19109C18.6089 4.64211 18.6089 6.07369 18.6089 7.50475C19.1481 7.50475 19.6688 7.50475 20.1885 7.50475C20.1885 6.05885 20.1885 4.62625 20.1885 3.19109C19.6575 3.19109 19.1409 3.19109 18.6089 3.19109ZM9.33051 7.86303C8.39755 7.602 7.503 7.29542 7.29869 6.17708C6.64685 6.42019 6.2536 7.15262 6.39134 7.83897C6.5342 8.5499 7.19167 9.08476 7.89728 9.06428C8.60032 9.04432 9.25165 8.51254 9.33051 7.86303ZM17.7614 7.50987C17.7614 6.31783 17.7614 5.14473 17.7614 3.9578C17.5228 3.9578 17.296 3.9578 17.0589 3.9578C17.0589 5.14626 17.0589 6.32397 17.0589 7.50987C17.2955 7.50987 17.5182 7.50987 17.7614 7.50987ZM2.33692 5.92782C2.63749 6.22826 2.93756 6.52768 3.23403 6.82351C3.56891 6.29633 3.56584 5.53986 3.22226 5.04441C2.92117 5.34434 2.61906 5.6458 2.33692 5.92782ZM8.60442 12.1915C8.91114 12.4997 9.21018 12.8001 9.48156 13.0724C9.76882 12.7853 10.0689 12.4853 10.3643 12.1895C9.86816 11.8629 9.15436 11.8604 8.60442 12.1915ZM6.26896 2.02003C5.97299 2.31689 5.67703 2.61375 5.38362 2.90754C5.85061 3.24637 6.74465 3.24074 7.14866 2.89372C6.85167 2.59891 6.55315 2.30256 6.26896 2.02003ZM12.9763 9.64213C12.7387 9.5152 12.5196 9.39799 12.3009 9.2813C12.284 9.28846 12.2671 9.29512 12.2502 9.30228C12.3327 9.5628 12.4156 9.82332 12.5083 10.1156C12.686 9.93541 12.8237 9.79619 12.9763 9.64213Z" fill="#59597C"/>
<path d="M13.7397 17.0478C14.5743 16.8169 15.391 16.5866 16.2108 16.3655C16.6358 16.2509 17.0521 16.0963 17.5078 16.1306C18.2017 16.1828 18.662 16.5441 18.9078 17.1762C19.1566 17.8155 18.9877 18.379 18.5263 18.8632C18.279 19.1232 17.9799 19.3044 17.6389 19.4262C15.5001 20.1904 13.3659 20.9668 11.2245 21.7248C10.3852 22.0217 9.53623 21.9741 8.73744 21.5959C7.84084 21.171 6.9683 20.6945 6.09013 20.2313C5.6595 20.0041 5.34715 19.8981 4.90013 19.873C4.89296 19.9012 4.88169 19.9314 4.8776 19.9621C4.83817 20.2549 4.70452 20.3813 4.406 20.3869C4.05934 20.3931 3.71217 20.3885 3.34401 20.3885C3.33837 20.5128 3.33684 20.6254 3.3266 20.7375C3.30355 20.9863 3.17196 21.1357 2.92361 21.1388C2.11304 21.1485 1.30246 21.1495 0.491885 21.1383C0.216913 21.1347 0.0848044 20.9607 0.0832682 20.6567C0.080708 20.0302 0.0822441 19.4037 0.0822441 18.7772C0.0822441 17.7628 0.0817321 16.7484 0.0822441 15.7334C0.0822441 15.3122 0.221522 15.174 0.649084 15.1735C1.79352 15.1724 2.93846 15.1704 4.0829 15.1765C4.22883 15.1771 4.31485 15.1284 4.40293 15.0143C4.9585 14.2936 5.64772 13.7583 6.58068 13.6723C7.65086 13.5735 8.57716 13.9175 9.32629 14.7067C9.40617 14.7906 9.51268 14.8659 9.62175 14.9037C10.463 15.197 11.3028 15.4949 12.1523 15.7616C12.8559 15.9827 13.4647 16.298 13.7397 17.0478ZM4.87862 19.0275C4.95594 19.0429 5.01483 19.0613 5.07474 19.0654C5.66667 19.1104 6.18384 19.3535 6.69743 19.6325C7.47421 20.0537 8.2602 20.4601 9.05644 20.8435C9.66169 21.1352 10.3074 21.1818 10.9449 20.9556C13.0981 20.1914 15.2476 19.418 17.3942 18.6349C17.6036 18.5587 17.8002 18.4143 17.9677 18.2623C18.15 18.097 18.2283 17.8657 18.1776 17.6113C18.0706 17.0754 17.6533 16.8267 17.0813 16.9797C16.0234 17.2622 14.9686 17.556 13.9153 17.8549C13.8436 17.8754 13.7678 17.9645 13.7391 18.0387C13.392 18.9405 12.5671 19.3464 11.6484 19.0587C11.3305 18.9589 11.013 18.8586 10.695 18.7583C9.86497 18.4962 9.03494 18.2342 8.20541 17.9716C8.02517 17.9148 7.85773 17.8426 7.81114 17.6313C7.74867 17.3513 7.9837 17.034 8.41228 17.1752C9.01958 17.3748 9.62994 17.5652 10.2393 17.7567C10.8425 17.946 11.4431 18.1446 12.0519 18.3145C12.3709 18.4036 12.6459 18.2721 12.8395 18.01C13.0341 17.7464 13.0515 17.4572 12.8927 17.1655C12.7355 16.8768 12.4693 16.735 12.1718 16.6342C11.1989 16.3056 10.2275 15.9729 9.25307 15.649C9.04518 15.5799 8.88439 15.4708 8.74563 15.2978C8.20439 14.6243 7.14496 14.2972 6.32414 14.5531C5.75628 14.7302 5.33127 15.1095 4.99691 15.5901C4.9288 15.6879 4.88477 15.8245 4.88374 15.9433C4.87453 16.9034 4.87862 17.8631 4.87862 18.8233C4.87862 18.8898 4.87862 18.9569 4.87862 19.0275ZM2.51397 20.3209C2.51397 20.2221 2.51397 20.1423 2.51397 20.0624C2.51397 19.2118 2.51397 18.3611 2.51397 17.511C2.51397 17.0621 2.51807 16.6127 2.50885 16.1639C2.50783 16.106 2.44075 16.0001 2.40235 15.9996C1.9077 15.9883 1.41255 15.9919 0.914326 15.9919C0.914326 17.449 0.914326 18.8811 0.914326 20.3209C1.44327 20.3209 1.95942 20.3209 2.51397 20.3209ZM4.04859 16.0052C3.80946 16.0052 3.58262 16.0052 3.3481 16.0052C3.3481 17.1988 3.3481 18.3785 3.3481 19.5547C3.59235 19.5547 3.8197 19.5547 4.04859 19.5547C4.04859 18.3637 4.04859 17.189 4.04859 16.0052Z" fill="#59597C"/>
<path d="M14.3649 6.03784C14.5979 6.03733 14.7674 6.20111 14.7699 6.42939C14.7725 6.6551 14.601 6.83373 14.3772 6.83885C14.1478 6.84448 13.9543 6.65664 13.9568 6.43092C13.9589 6.2093 14.136 6.03835 14.3649 6.03784Z" fill="#59597C"/>
<path d="M6.73998 16.6746C6.96272 16.6751 7.14604 16.8532 7.1486 17.0723C7.15116 17.2949 6.95095 17.4919 6.72821 17.4848C6.507 17.4781 6.33291 17.2939 6.33598 17.0702C6.33854 16.843 6.5111 16.674 6.73998 16.6746Z" fill="#59597C"/>
</svg>
