<svg width="18" height="18" viewBox="0 0 18 18" fill="none" xmlns="http://www.w3.org/2000/svg">
<path d="M9.64638 0.976562C9.92655 1.02995 10.21 1.06907 10.4862 1.13903C12.4574 1.63805 13.9341 3.37351 14.1208 5.40141C14.3496 7.88324 12.7362 10.1094 10.2972 10.6539C9.94015 10.7334 9.56548 10.762 9.19844 10.7673C7.78732 10.7878 6.40936 10.9788 5.08908 11.499C4.34108 11.7938 3.63983 12.1718 3.02877 12.7007C2.41903 13.2282 2.11399 13.902 2.10272 14.707C2.09708 15.1039 2.10007 15.5011 2.10206 15.8984C2.10438 16.3155 2.3809 16.596 2.79634 16.596C7.09768 16.597 11.3993 16.597 15.7007 16.596C16.1165 16.596 16.3979 16.3158 16.3953 15.8997C16.392 15.3818 16.4079 14.8612 16.3611 14.3469C16.3025 13.7014 15.9918 13.1649 15.508 12.7338C15.014 12.2935 14.449 11.9646 13.8492 11.6907C13.5031 11.5325 13.3516 11.2146 13.451 10.8813C13.5561 10.5289 13.9361 10.3014 14.2726 10.4446C15.334 10.8956 16.3084 11.4792 17.0011 12.4364C17.3896 12.9732 17.6115 13.5797 17.6904 14.2382C17.6947 14.275 17.7103 14.3105 17.7202 14.3469C17.7202 14.9647 17.7202 15.5824 17.7202 16.2001C17.7116 16.2137 17.6973 16.2263 17.6953 16.2409C17.5727 17.1258 16.766 17.9375 15.6032 17.9276C13.0893 17.906 10.5754 17.921 8.06152 17.921C6.29199 17.921 4.52212 17.9243 2.75258 17.9196C1.77945 17.917 0.931315 17.2068 0.814606 16.2465C0.750283 15.719 0.77084 15.1792 0.781782 14.6453C0.803996 13.5409 1.21082 12.5916 2.01784 11.8346C2.93063 10.9785 4.02477 10.431 5.20513 10.0468C5.54233 9.937 5.88682 9.85046 6.22932 9.75298C6.22169 9.73474 6.22004 9.72281 6.21307 9.71618C6.19318 9.69694 6.1713 9.68037 6.15041 9.66246C4.83677 8.53478 4.23233 7.11067 4.38087 5.38317C4.5493 3.42656 5.9906 1.69972 7.88547 1.17551C8.20177 1.08797 8.52969 1.04188 8.85196 0.976562C9.11688 0.976562 9.38147 0.976562 9.64638 0.976562ZM9.24088 9.44826C11.212 9.45224 12.8211 7.84875 12.8231 5.87821C12.8251 3.91331 11.2283 2.3075 9.26575 2.30054C7.29297 2.29324 5.68092 3.89242 5.67561 5.86163C5.67031 7.83383 7.27108 9.44429 9.24088 9.44826Z" fill="#59597C"/>
</svg>
