<svg width="16" height="16" viewBox="0 0 16 16" fill="none" xmlns="http://www.w3.org/2000/svg">
<path d="M0 3.58737C0.0996231 3.31785 0.162684 3.02683 0.305578 2.78252C0.70776 2.0936 1.33032 1.72764 2.1263 1.72193C4.02316 1.70882 5.92003 1.71621 7.81689 1.71856C8.25798 1.71924 8.5753 2.0321 8.56994 2.44579C8.56457 2.85141 8.24759 3.1505 7.81253 3.15083C5.95458 3.15218 4.09696 3.15151 2.239 3.15151C1.71171 3.15151 1.43162 3.42875 1.43162 3.95468C1.43095 7.23559 1.43095 10.5168 1.43162 13.7978C1.43162 14.3173 1.70802 14.5962 2.22525 14.5966C5.50577 14.5976 8.78629 14.5976 12.0668 14.5966C12.5706 14.5966 12.8551 14.3092 12.8554 13.8068C12.8561 11.9343 12.8544 10.0618 12.8564 8.18932C12.8571 7.66642 13.326 7.32028 13.8027 7.48326C14.1025 7.58576 14.2843 7.85427 14.2857 8.21251C14.2884 8.88899 14.2864 9.56513 14.2864 10.2416C14.2864 11.4433 14.29 12.6451 14.285 13.8468C14.2807 14.894 13.6071 15.7459 12.6112 15.9747C12.531 15.9932 12.4458 15.9966 12.363 15.9966C8.93187 15.9976 5.50074 15.9942 2.06961 15.9999C1.30449 16.0013 0.740632 15.6494 0.346165 15.0301C0.180462 14.7696 0.11237 14.4467 0 14.1526C0 10.6308 0 7.1089 0 3.58737Z" fill="#3F260F"/>
<path d="M11.1854 2.30396C12.0273 3.14746 12.8622 3.9839 13.7038 4.82706C13.676 4.85697 13.6397 4.89797 13.6015 4.93628C11.7908 6.75065 9.97918 8.564 8.1712 10.3807C8.05078 10.5017 7.91828 10.5719 7.75359 10.6039C6.97706 10.7554 6.20155 10.912 5.42569 11.0663C5.102 11.1305 4.89068 10.9308 4.95341 10.6129C5.11441 9.79699 5.27743 8.98172 5.44783 8.16779C5.46695 8.07571 5.52062 7.97725 5.58737 7.91037C7.43057 6.0577 9.27745 4.20838 11.1237 2.35907C11.1465 2.33622 11.1716 2.31605 11.1854 2.30396Z" fill="#3F260F"/>
<path d="M14.5055 4.04415C13.6488 3.18619 12.8173 2.35311 11.9609 1.49516C12.3792 1.10265 12.7734 0.660735 13.2376 0.312918C13.9256 -0.20192 14.9101 -0.058424 15.5068 0.574369C16.0965 1.19977 16.1753 2.18105 15.64 2.84779C15.2958 3.27626 14.8836 3.64995 14.5055 4.04415Z" fill="#3F260F"/>
</svg>
