<svg width="16" height="16" viewBox="0 0 16 16" fill="none" xmlns="http://www.w3.org/2000/svg">
<path d="M7.53125 0C7.85417 0 8.17708 0 8.5 0C8.76708 0.035 9.03583 0.06125 9.30125 0.105833C10.8208 0.362917 12.1638 0.9975 13.3113 2.02667C14.69 3.26333 15.5517 4.79542 15.8767 6.6225C15.9283 6.91292 15.9592 7.2075 16 7.5C16 7.82292 16 8.14583 16 8.46875C15.9913 8.51875 15.9804 8.56875 15.9733 8.61917C15.93 8.93333 15.9021 9.25042 15.8421 9.56125C15.2213 12.7804 12.6133 15.3271 9.37708 15.8775C9.08625 15.9271 8.79208 15.9596 8.49958 16C8.16625 16 7.83292 16 7.49958 16C7.465 15.9913 7.43125 15.9767 7.39625 15.9742C6.71833 15.9258 6.05458 15.8013 5.41708 15.565C2.51125 14.4896 0.749167 12.4271 0.126667 9.39333C0.06625 9.09917 0.04125 8.79792 0 8.5C0 8.16667 0 7.83333 0 7.5C0.0404167 7.20708 0.0725 6.91292 0.1225 6.62167C0.677083 3.38208 3.21792 0.779583 6.43708 0.1575C6.79833 0.0879167 7.16625 0.0516667 7.53125 0ZM1.33667 7.99125C1.33958 11.6846 4.3225 14.6742 7.99458 14.6637C11.695 14.6533 14.6696 11.6738 14.6633 7.98333C14.6571 4.30708 11.675 1.33417 7.99583 1.33583C4.31792 1.33792 1.33375 4.32 1.33667 7.99125Z" fill="#8A8A8A"/>
<path d="M7.33839 9.0988C7.34714 8.21546 7.74547 7.58588 8.55422 7.2163C9.0713 6.98005 9.38714 6.44005 9.33547 5.90671C9.27839 5.31921 8.89005 4.85713 8.32839 4.70921C7.56297 4.50755 6.78214 5.0363 6.68339 5.82338C6.6738 5.90088 6.66839 5.9788 6.66214 6.05671C6.63214 6.41463 6.3388 6.67296 5.97505 6.66255C5.6188 6.65213 5.34547 6.36963 5.33839 6.00463C5.31422 4.80588 6.17672 3.69755 7.35672 3.41088C8.92255 3.03005 10.4546 4.08713 10.6534 5.68505C10.7921 6.80255 10.1821 7.92671 9.15589 8.39838C8.80589 8.55921 8.64214 8.79755 8.66339 9.17755C8.66964 9.29046 8.66589 9.40921 8.63755 9.51755C8.55464 9.83338 8.24297 10.0355 7.92339 9.9963C7.60047 9.95713 7.35505 9.69255 7.34005 9.36463C7.33464 9.27588 7.33839 9.18713 7.33839 9.0988Z" fill="#8A8A8A"/>
<path d="M7.99401 11.3371C8.36735 11.3346 8.66026 11.6225 8.66235 11.9941C8.66485 12.3671 8.37651 12.6604 8.00526 12.6629C7.63235 12.6654 7.33901 12.3771 7.33693 12.0058C7.33443 11.6321 7.62235 11.3396 7.99401 11.3371Z" fill="#8A8A8A"/>
</svg>
