<svg width="16" height="16" viewBox="0 0 16 16" fill="none" xmlns="http://www.w3.org/2000/svg">
<path d="M7.53125 0C7.85417 0 8.17708 0 8.5 0C8.76708 0.035 9.03583 0.06125 9.30125 0.105833C10.8208 0.362917 12.1638 0.9975 13.3113 2.02667C14.69 3.26333 15.5517 4.79542 15.8767 6.6225C15.9283 6.91292 15.9592 7.2075 16 7.5C16 7.82292 16 8.14583 16 8.46875C15.9913 8.51875 15.9804 8.56875 15.9733 8.61917C15.93 8.93333 15.9021 9.25042 15.8421 9.56125C15.2213 12.7804 12.6133 15.3271 9.37708 15.8775C9.08625 15.9271 8.79208 15.9596 8.49958 16C8.16625 16 7.83292 16 7.49958 16C7.465 15.9913 7.43125 15.9767 7.39625 15.9742C6.71833 15.9258 6.05458 15.8013 5.41708 15.565C2.51125 14.4896 0.749167 12.4271 0.126667 9.39333C0.06625 9.09917 0.04125 8.79792 0 8.5C0 8.16667 0 7.83333 0 7.5C0.0404167 7.20708 0.0725 6.91292 0.1225 6.62167C0.677083 3.38208 3.21792 0.779583 6.43708 0.1575C6.79833 0.0879167 7.16625 0.0516667 7.53125 0ZM1.33667 7.99125C1.33958 11.6846 4.3225 14.6742 7.99458 14.6637C11.695 14.6533 14.6696 11.6738 14.6633 7.98333C14.6571 4.30708 11.675 1.33417 7.99583 1.33583C4.31792 1.33792 1.33375 4.32 1.33667 7.99125Z" fill="#252525"/>
<path d="M7.3379 9.0988C7.34665 8.21546 7.74498 7.58588 8.55373 7.2163C9.07081 6.98005 9.38665 6.44005 9.33498 5.90671C9.2779 5.31921 8.88956 4.85713 8.3279 4.70921C7.56248 4.50755 6.78165 5.0363 6.6829 5.82338C6.67331 5.90088 6.6679 5.9788 6.66165 6.05671C6.63165 6.41463 6.33831 6.67296 5.97456 6.66255C5.61831 6.65213 5.34498 6.36963 5.3379 6.00463C5.31373 4.80588 6.17623 3.69755 7.35623 3.41088C8.92206 3.03005 10.4541 4.08713 10.6529 5.68505C10.7916 6.80255 10.1816 7.92671 9.1554 8.39838C8.8054 8.55921 8.64165 8.79755 8.6629 9.17755C8.66915 9.29046 8.6654 9.40921 8.63706 9.51755C8.55415 9.83338 8.24248 10.0355 7.9229 9.9963C7.59998 9.95713 7.35456 9.69255 7.33956 9.36463C7.33415 9.27588 7.3379 9.18713 7.3379 9.0988Z" fill="#252525"/>
<path d="M7.99426 11.3372C8.36759 11.3347 8.66051 11.6226 8.66259 11.9943C8.66509 12.3672 8.37676 12.6605 8.00551 12.663C7.63259 12.6655 7.33926 12.3772 7.33717 12.0059C7.33467 11.6322 7.62259 11.3397 7.99426 11.3372Z" fill="#252525"/>
</svg>
