<svg width="18" height="19" viewBox="0 0 18 19" fill="none" xmlns="http://www.w3.org/2000/svg">
<path d="M18 3.15424C17.9063 3.2634 17.8168 3.37702 17.7182 3.48096C16.4572 4.81128 15.196 6.14159 13.9308 7.46781C13.8392 7.56356 13.8056 7.65818 13.806 7.79155C13.8095 9.78907 13.8088 11.787 13.8084 13.7845C13.8084 14.8928 13.1472 15.5861 12.091 15.5861C10.148 15.5864 8.20458 15.5876 6.26155 15.5835C6.12895 15.5831 6.03454 15.62 5.94012 15.7224C5.00379 16.7387 4.06145 17.7486 3.12299 18.7627C2.97059 18.9273 2.80193 19.035 2.57668 18.9895C2.31219 18.9359 2.14989 18.709 2.14918 18.3939C2.14777 17.5341 2.14847 16.6746 2.14847 15.8148C2.14847 15.7474 2.14847 15.68 2.14847 15.5864C1.98935 15.5864 1.83943 15.5864 1.6895 15.5864C0.671133 15.5853 0.0003536 14.8812 0 13.811C0 11.2814 0 8.75194 0.0003536 6.22243C0.0007072 5.16257 0.672901 4.45364 1.67783 4.45364C4.66575 4.4529 7.65402 4.45253 10.6419 4.45625C10.7692 4.45625 10.8583 4.41937 10.9489 4.32326C12.2201 2.97729 13.4944 1.63468 14.772 0.295419C14.8816 0.180679 15.0213 0.0976039 15.1468 0C15.2288 0 15.3112 0 15.3933 0C15.5216 0.103192 15.6627 0.192973 15.7759 0.312183C16.5205 1.09525 17.2592 1.88465 17.9996 2.67219C18 2.83275 18 2.99368 18 3.15424ZM12.7515 8.71431C12.2218 9.27237 11.7314 9.79578 11.2321 10.3102C11.1342 10.4112 11.0136 10.501 10.888 10.5569C9.66777 11.0989 8.44503 11.6346 7.22051 12.1662C7.10983 12.2143 6.98289 12.2422 6.86337 12.243C5.84218 12.2489 4.82063 12.2471 3.79908 12.2459C3.44477 12.2456 3.20326 12.0146 3.20609 11.6845C3.20892 11.3548 3.44937 11.1335 3.80862 11.1332C4.67742 11.1324 5.54621 11.1295 6.41501 11.1369C6.54902 11.138 6.60807 11.0915 6.65758 10.9652C7.10347 9.82335 7.55254 8.68265 8.00904 7.5453C8.06455 7.40709 8.15154 7.2741 8.2509 7.16643C8.70527 6.67469 9.16955 6.19263 9.62994 5.70685C9.66459 5.66997 9.69535 5.62899 9.73955 5.57572C9.69394 5.57087 9.67202 5.56677 9.64974 5.56677C6.96698 5.5664 4.28457 5.56566 1.60181 5.56752C1.27614 5.56789 1.05832 5.80855 1.05797 6.16097C1.05656 8.73369 1.05656 11.3064 1.05797 13.8791C1.05832 14.239 1.27862 14.4688 1.6209 14.4718C1.94975 14.4748 2.27824 14.4718 2.60709 14.4726C2.99534 14.4737 3.20503 14.6935 3.20574 15.1025C3.2068 15.6963 3.20574 16.2898 3.20644 16.8836C3.20644 16.9343 3.21352 16.9853 3.22165 17.0933C3.29414 17.001 3.33162 16.9451 3.37652 16.897C4.04872 16.171 4.72409 15.4482 5.39275 14.7188C5.55046 14.5471 5.72549 14.4688 5.95391 14.4696C8.00833 14.4744 10.0631 14.4726 12.1175 14.4722C12.5528 14.4722 12.7519 14.2625 12.7519 13.805C12.7522 12.1848 12.7519 10.5643 12.7519 8.94417C12.7515 8.88493 12.7515 8.82458 12.7515 8.71431ZM9.32867 7.6444C9.8124 8.15588 10.3 8.67147 10.7629 9.16061C12.2462 7.59857 13.7363 6.02909 15.2101 4.47674C14.7395 3.97978 14.2515 3.46457 13.7745 2.96127C12.2961 4.51846 10.8088 6.08534 9.32867 7.6444ZM16.7224 2.91545C16.2391 2.4088 15.7465 1.89247 15.2624 1.38508C15.0294 1.63021 14.7865 1.88651 14.5552 2.13015C15.0375 2.64127 15.528 3.16132 16.0075 3.66909C16.2451 3.41837 16.4884 3.16207 16.7224 2.91545ZM7.94539 10.596C7.95741 10.6072 7.96979 10.6183 7.98181 10.6295C8.59601 10.3602 9.21022 10.0908 9.79436 9.8349C9.42839 9.4482 9.06347 9.06301 8.70139 8.68079C8.45599 9.3018 8.20069 9.94889 7.94539 10.596Z" fill="#8A8A8A"/>
</svg>
