<svg width="25" height="13" viewBox="0 0 25 13" fill="none" xmlns="http://www.w3.org/2000/svg">
<path d="M5.10541 12.9299C5.10541 12.8299 5.10541 12.7429 5.10541 12.6559C5.10541 10.3236 5.10291 7.99074 5.10979 5.65844C5.11042 5.47207 5.04972 5.34664 4.91204 5.21706C3.48275 3.8746 2.06034 2.52622 0.636056 1.17962C0.577858 1.1246 0.523415 1.06602 0.440186 0.982007C0.554078 0.97609 0.628547 0.96899 0.702389 0.96899C3.38888 0.968399 6.07475 0.970174 8.76125 0.964849C8.93396 0.964257 9.04973 1.01691 9.16801 1.12933C10.1799 2.09313 11.1974 3.0522 12.2137 4.01246C12.2732 4.06866 12.3357 4.12191 12.4064 4.18522C12.4772 4.12191 12.5397 4.06807 12.5992 4.01187C13.6211 3.04688 14.6399 2.07893 15.6687 1.11986C15.7563 1.03821 15.9071 0.974907 16.0285 0.974907C18.7225 0.966624 21.4165 0.968399 24.1105 0.96899C24.1843 0.96899 24.2588 0.976682 24.3708 0.982598C24.2876 1.06661 24.2332 1.12519 24.175 1.18021C22.7507 2.52741 21.3283 3.87579 19.899 5.21766C19.7613 5.34723 19.7 5.47207 19.7006 5.65903C19.7075 7.99133 19.705 10.3242 19.705 12.6565C19.705 12.7435 19.705 12.8305 19.705 12.9299C14.8357 12.9299 9.98966 12.9299 5.10541 12.9299ZM11.6874 11.6063C11.6874 9.66512 11.6874 7.74283 11.6874 5.81818C9.95962 5.81818 8.24685 5.81818 6.52719 5.81818C6.52719 7.75526 6.52719 9.67695 6.52719 11.6063C8.25186 11.6063 9.96025 11.6063 11.6874 11.6063ZM18.2819 11.6063C18.2819 9.66453 18.2819 7.74224 18.2819 5.81818C16.5516 5.81818 14.8382 5.81818 13.1223 5.81818C13.1223 7.75467 13.1223 9.67695 13.1223 11.6063C14.8458 11.6063 16.5535 11.6063 18.2819 11.6063ZM3.83757 2.31027C3.87825 2.35879 3.89389 2.38186 3.91392 2.40079C4.6148 3.06344 5.3138 3.72787 6.02156 4.38461C6.08289 4.442 6.19991 4.4704 6.29127 4.47099C7.68865 4.47631 9.08603 4.47513 10.4834 4.47395C10.5397 4.47395 10.5954 4.46271 10.6805 4.45383C10.6086 4.38106 10.5629 4.33136 10.5141 4.28462C9.86325 3.66871 9.21557 3.04865 8.55536 2.44162C8.46775 2.36115 8.31506 2.30376 8.19178 2.30317C6.82569 2.2937 5.45961 2.29666 4.09352 2.29725C4.01968 2.29784 3.94583 2.30494 3.83757 2.31027ZM20.9841 2.31914C20.9077 2.30731 20.8783 2.29844 20.8495 2.29844C19.4134 2.29784 17.9766 2.29548 16.5404 2.30258C16.4528 2.30317 16.3458 2.35524 16.2813 2.41558C15.603 3.04747 14.9309 3.68586 14.2588 4.32308C14.22 4.35976 14.1906 4.4065 14.1361 4.47454C15.6518 4.47454 17.1255 4.47513 18.5998 4.47217C18.6555 4.47217 18.7269 4.44851 18.7657 4.41242C19.4966 3.72669 20.2237 3.038 20.9841 2.31914Z" fill="#59597C"/>
</svg>
