<svg width="18" height="18" viewBox="0 0 18 18" fill="none" xmlns="http://www.w3.org/2000/svg">
<path d="M9 0C8.01109 0 7.04439 0.277811 6.22215 0.798302C5.3999 1.31879 4.75904 2.05859 4.3806 2.92413C4.00216 3.78968 3.90315 4.7421 4.09607 5.66095C4.289 6.57981 4.7652 7.42384 5.46447 8.0863C6.16373 8.74875 7.05464 9.1999 8.02455 9.38267C8.99445 9.56544 9.99979 9.47163 10.9134 9.11311C11.827 8.75459 12.6079 8.14746 13.1573 7.36849C13.7068 6.58952 14 5.6737 14 4.73684C14 3.48055 13.4732 2.27572 12.5355 1.38739C11.5979 0.499059 10.3261 0 9 0ZM9 7.57895C8.40666 7.57895 7.82664 7.41226 7.33329 7.09997C6.83994 6.78767 6.45542 6.3438 6.22836 5.82447C6.0013 5.30514 5.94189 4.73369 6.05764 4.18237C6.1734 3.63106 6.45912 3.12465 6.87868 2.72717C7.29824 2.32969 7.83279 2.05901 8.41473 1.94935C8.99667 1.83968 9.59987 1.89597 10.1481 2.11108C10.6962 2.32619 11.1648 2.69047 11.4944 3.15785C11.8241 3.62523 12 4.17473 12 4.73684C12 5.49062 11.6839 6.21352 11.1213 6.74651C10.5587 7.27951 9.79565 7.57895 9 7.57895ZM18 18V17.0526C18 15.2938 17.2625 13.6071 15.9497 12.3634C14.637 11.1197 12.8565 10.4211 11 10.4211H7C5.14348 10.4211 3.36301 11.1197 2.05025 12.3634C0.737498 13.6071 0 15.2938 0 17.0526V18H2V17.0526C2 15.7963 2.52678 14.5915 3.46447 13.7032C4.40215 12.8148 5.67392 12.3158 7 12.3158H11C12.3261 12.3158 13.5979 12.8148 14.5355 13.7032C15.4732 14.5915 16 15.7963 16 17.0526V18H18Z" fill="#8A8A8A"/>
</svg>
