<svg width="18" height="18" viewBox="0 0 18 18" fill="none" xmlns="http://www.w3.org/2000/svg">
<path d="M17.9999 16.1354C17.9703 16.2532 17.9487 16.3739 17.9102 16.4885C17.6501 17.2576 17.1331 17.7653 16.3377 17.9423C15.5485 18.1179 14.8536 17.8967 14.3183 17.2929C13.1262 15.9471 11.9533 14.5848 10.7724 13.2287C9.8226 12.1379 8.87321 11.0466 7.92383 9.95527C7.90458 9.9332 7.88439 9.91254 7.86514 9.89188C7.10122 10.3248 6.64813 10.2436 6.14855 9.55613C6.02741 9.68996 5.90534 9.81487 5.79735 9.95104C5.76777 9.98814 5.7687 10.0605 5.77575 10.114C5.86214 10.762 5.58089 11.326 5.02685 11.6077C4.48032 11.8857 3.83707 11.7819 3.37834 11.3264C2.39375 10.3483 1.41244 9.36642 0.433942 8.38172C-0.0252554 7.91919 -0.123386 7.26976 0.16772 6.7166C0.45507 6.17096 1.04057 5.89062 1.67537 5.98641C1.73171 5.99487 1.81388 5.96951 1.85379 5.92959C3.21542 4.5744 4.57329 3.21592 5.92928 1.85509C5.96825 1.81611 6.00582 1.74286 5.99642 1.69449C5.83256 0.832821 6.42745 0.133153 7.14348 0.0181067C7.15428 0.0162284 7.16367 0.00683691 7.174 0.000732422C7.31439 0.000732422 7.45524 0.000732422 7.59563 0.000732422C8.03276 0.097465 8.34453 0.378271 8.64784 0.686783C9.53525 1.5879 10.4372 2.47399 11.327 3.37323C12.051 4.10482 11.8387 5.29285 10.9063 5.67227C10.6837 5.7629 10.418 5.76947 10.1715 5.77182C10.0381 5.77323 9.94233 5.78215 9.8503 5.88405C9.76532 5.9789 9.65873 6.0545 9.5545 6.14513C10.2217 6.54803 10.355 7.27446 9.88786 7.85955C10.4644 8.36341 11.041 8.86726 11.6185 9.37112C12.8539 10.4488 14.0892 11.526 15.3245 12.6032C15.933 13.1338 16.5354 13.6724 17.1528 14.1927C17.6111 14.5787 17.8947 15.0553 17.9989 15.6428C17.9999 15.8071 17.9999 15.9715 17.9999 16.1354ZM2.44962 6.37663C3.42717 7.35429 4.41459 8.34228 5.38839 9.31618C6.69555 8.00935 8.01398 6.69078 9.32067 5.38395C8.34359 4.4077 7.3557 3.42112 6.37862 2.44534C5.0724 3.75311 3.7535 5.07215 2.44962 6.37663ZM8.368 9.39506C9.62211 10.8357 10.8772 12.2778 12.1111 13.695C12.6435 13.1629 13.1666 12.6408 13.6943 12.1134C12.2698 10.8709 10.8293 9.61436 9.39768 8.36528C9.05116 8.71183 8.71686 9.04617 8.368 9.39506ZM15.3508 13.5593C14.7423 14.1678 14.1521 14.7576 13.5535 15.3563C13.9911 15.856 14.4249 16.3856 14.8968 16.8801C15.4471 17.4572 16.3551 17.429 16.904 16.8515C17.4515 16.2753 17.4233 15.4042 16.8378 14.8572C16.7523 14.7773 16.6627 14.7022 16.5744 14.6252C16.1603 14.2646 15.7466 13.9039 15.3508 13.5593ZM6.67583 1.40195C6.67066 1.62218 6.76645 1.79404 6.91857 1.94572C7.66465 2.68905 8.40838 3.43474 9.15352 4.17949C9.39345 4.41944 9.62868 4.66409 9.87565 4.897C10.0902 5.09939 10.3466 5.15104 10.6227 5.0374C10.8908 4.92705 11.0354 4.71856 11.056 4.43024C11.0725 4.19921 10.9767 4.01326 10.8142 3.85172C9.84889 2.88909 8.88542 1.92411 7.92148 0.960545C7.88439 0.923449 7.84683 0.885413 7.80504 0.854421C7.57263 0.682556 7.32002 0.652034 7.06225 0.781637C6.81152 0.907014 6.68287 1.11926 6.67583 1.40195ZM1.40492 6.67199C1.11053 6.68514 0.891261 6.81803 0.771531 7.09086C0.648046 7.37119 0.691712 7.63885 0.904407 7.85345C1.90074 8.85928 2.90177 9.86088 3.9075 10.8573C4.18687 11.1339 4.61649 11.1208 4.8874 10.8522C5.16536 10.577 5.17381 10.1473 4.88834 9.85947C3.89905 8.86303 2.90459 7.87176 1.91107 6.87908C1.77209 6.74102 1.60447 6.66824 1.40492 6.67199ZM6.77725 9.05838C6.78382 9.26405 6.8519 9.37346 6.98947 9.43169C7.14958 9.49931 7.28527 9.45141 7.40406 9.33261C8.04544 8.69023 8.68869 8.04973 9.32866 7.40594C9.49862 7.23502 9.50754 7.02277 9.36152 6.8772C9.21597 6.73257 9.00046 6.74243 8.83143 6.91054C8.18818 7.55104 7.54586 8.19248 6.90824 8.83862C6.83922 8.90811 6.80448 9.01142 6.77725 9.05838ZM14.2897 12.6347C13.7319 13.1888 13.183 13.7339 12.6257 14.2876C12.7651 14.4468 12.913 14.6153 13.0323 14.7515C13.6112 14.173 14.1784 13.6062 14.7498 13.0352C14.6028 12.9066 14.4362 12.7619 14.2897 12.6347Z" fill="#8A8A8A"/>
<path d="M8.93432 15.7011C9.13528 15.8979 9.3414 16.0646 9.50386 16.2665C9.84098 16.6854 9.87995 17.1888 9.83628 17.7001C9.8222 17.8682 9.70012 17.9673 9.53156 17.9936C9.47428 18.0025 9.41465 17.9983 9.35643 17.9983C6.40592 17.9983 3.45588 17.9983 0.505376 17.9983C0.107217 17.9983 0.0170679 17.8959 0.00204307 17.502C-0.0275371 16.7323 0.2631 16.1374 0.93828 15.7378C0.742957 15.4269 0.658442 15.1034 0.737792 14.7451C0.857991 14.2023 1.33362 13.7862 1.88766 13.7843C3.9132 13.7778 5.93874 13.7721 7.96381 13.7862C8.84511 13.7923 9.40573 14.7578 9.01508 15.5509C8.98738 15.6082 8.95451 15.6636 8.93432 15.7011ZM9.13434 17.2883C9.13857 16.6971 8.66904 16.2421 8.05678 16.2416C6.34629 16.2398 4.6358 16.2407 2.92579 16.2412C2.52763 16.2412 2.129 16.2351 1.73084 16.2435C1.16084 16.2552 0.677223 16.7591 0.725584 17.2888C3.52256 17.2883 6.32094 17.2883 9.13434 17.2883ZM4.92315 14.4835C3.9517 14.4835 2.98072 14.4831 2.00927 14.484C1.65196 14.4845 1.41438 14.6944 1.41156 15.0076C1.40875 15.3194 1.65008 15.5373 2.00411 15.5377C3.94654 15.5387 5.88897 15.5387 7.83187 15.5377C8.19998 15.5377 8.44132 15.3231 8.43897 15.0038C8.43662 14.693 8.19623 14.484 7.83704 14.4835C6.86559 14.4831 5.89461 14.4835 4.92315 14.4835Z" fill="#8A8A8A"/>
<path d="M6.412 3.51282C6.49934 3.5795 6.62799 3.63209 6.67259 3.72507C6.71814 3.82039 6.68996 3.9561 6.67541 4.07208C6.66978 4.11575 6.61531 4.15567 6.57822 4.19276C6.11526 4.65717 5.64996 5.12018 5.18795 5.58553C5.07244 5.70198 4.94426 5.77054 4.77899 5.7156C4.51465 5.62826 4.45877 5.32303 4.67335 5.10609C5.14663 4.62712 5.62508 4.15238 6.10118 3.6767C6.12184 3.65604 6.14203 3.63209 6.16738 3.61988C6.23405 3.58654 6.30354 3.55931 6.412 3.51282Z" fill="#8A8A8A"/>
<path d="M3.89536 6.7247C3.7005 6.7247 3.55072 6.57678 3.54885 6.38191C3.54697 6.18938 3.69675 6.03301 3.88784 6.02878C4.08223 6.02409 4.25126 6.19032 4.24797 6.38285C4.24421 6.57255 4.08786 6.7247 3.89536 6.7247Z" fill="#8A8A8A"/>
</svg>
