<svg width="18" height="18" viewBox="0 0 18 18" fill="none" xmlns="http://www.w3.org/2000/svg">
<path d="M10.7409 0C10.7627 0.00939031 10.7835 0.0230063 10.8058 0.0281709C11.4595 0.179825 11.862 0.600511 11.9699 1.24422C12.0184 1.53297 12.0668 1.82172 12.1181 2.11C12.2392 2.78798 12.9017 3.1697 13.5738 2.9448C13.876 2.84386 14.1723 2.72648 14.4726 2.61943C15.2009 2.36026 15.9036 2.60112 16.2953 3.25234C16.7941 4.0815 17.289 4.91254 17.78 5.74593C18.1631 6.39574 18.0352 7.09767 17.4498 7.58033C17.2057 7.78175 16.9534 7.97285 16.7098 8.17427C16.1573 8.63205 16.1583 9.36543 16.7127 9.82415C16.9607 10.0293 17.2183 10.2242 17.4662 10.4298C18.027 10.8956 18.1612 11.5999 17.796 12.2229C17.2953 13.0779 16.7888 13.9296 16.2745 14.7771C15.906 15.3842 15.2062 15.6245 14.5196 15.3926C14.212 15.2888 13.9104 15.1691 13.6038 15.0621C12.9036 14.8179 12.2416 15.1949 12.1152 15.9067C12.0566 16.2354 12.0072 16.5659 11.9375 16.8922C11.8019 17.5247 11.2348 17.9871 10.569 17.9928C9.52348 18.0022 8.47797 18.0026 7.43247 17.9928C6.71625 17.9857 6.15355 17.4768 6.03151 16.7551C5.9826 16.4664 5.93418 16.1776 5.88333 15.8894C5.76275 15.2095 5.10223 14.8254 4.43105 15.0499C4.12887 15.1508 3.83251 15.2677 3.53227 15.3743C2.80104 15.6339 2.09936 15.3954 1.70856 14.7461C1.2059 13.9132 0.70712 13.0774 0.213179 12.2389C-0.163088 11.5999 -0.0308857 10.8961 0.5478 10.419C0.791865 10.2181 1.04416 10.0265 1.28774 9.82509C1.84173 9.36778 1.8427 8.63064 1.29065 8.17474C1.04223 7.96956 0.785085 7.77471 0.537146 7.56906C-0.0255589 7.10236 -0.161635 6.39856 0.202526 5.77692C0.703246 4.92193 1.21026 4.07023 1.72357 3.22229C2.095 2.6091 2.80104 2.36871 3.49401 2.60722C3.79522 2.71098 4.09159 2.82742 4.39231 2.9326C5.09303 3.17768 5.75839 2.80207 5.8843 2.09263C5.93466 1.80998 5.98309 1.52733 6.03006 1.24422C6.13757 0.600511 6.53901 0.180764 7.19421 0.0281709C7.21697 0.0230063 7.2378 0.00939031 7.25959 0C8.42035 0 9.58063 0 10.7409 0ZM1.4553 6.48213C1.71195 6.68731 1.95456 6.88028 2.19669 7.07419C3.47561 8.09774 3.47319 9.90256 2.19185 10.9275C1.94972 11.1209 1.70759 11.3144 1.46934 11.505C1.47321 11.5252 1.47224 11.5383 1.47757 11.5473C1.95941 12.3586 2.44269 13.169 2.92259 13.9817C2.97005 14.062 3.01605 14.0653 3.09741 14.0343C3.37828 13.9272 3.66108 13.8254 3.94486 13.7268C5.42329 13.2117 7.01601 14.0958 7.29978 15.5889C7.36273 15.9203 7.41891 16.2532 7.47799 16.5833C8.50412 16.5833 9.51138 16.5833 10.5264 16.5833C10.5753 16.2997 10.6266 16.0232 10.6697 15.7461C10.9002 14.2629 12.2833 13.3126 13.7588 13.6474C14.1438 13.7347 14.5123 13.893 14.8842 14.0296C14.9932 14.0695 15.0421 14.0517 15.0963 13.9545C15.2435 13.6925 15.4023 13.4366 15.5563 13.1784C15.8847 12.6267 16.213 12.0745 16.5452 11.5158C16.3006 11.32 16.0638 11.1299 15.8261 10.9407C14.5166 9.89786 14.5186 8.09821 15.8304 7.05494C16.0677 6.8662 16.304 6.67651 16.5462 6.4826C16.0513 5.65203 15.5612 4.83226 15.0755 4.01013C15.0241 3.92327 14.9718 3.94018 14.8973 3.96741C14.5869 4.08103 14.2784 4.20076 13.9631 4.29982C12.5176 4.75385 10.9758 3.86271 10.7031 2.41941C10.6402 2.08653 10.584 1.75223 10.524 1.41371C9.50653 1.41371 8.4988 1.41371 7.47605 1.41371C7.42762 1.69167 7.37532 1.9668 7.33271 2.24335C7.07896 3.89369 5.46445 4.82099 3.85285 4.23973C3.59861 4.14817 3.34583 4.05192 3.08821 3.96835C3.04462 3.95426 2.95407 3.97727 2.93373 4.0106C2.43979 4.82709 1.95214 5.64827 1.4553 6.48213Z" fill="#8A8A8A"/>
<path d="M8.8847 12.4666C6.87601 12.3685 5.33026 10.7543 5.4213 8.87339C5.51477 6.93992 7.16947 5.45578 9.12489 5.53607C11.1273 5.61823 12.6658 7.24041 12.5796 9.11519C12.491 11.0393 10.8547 12.5201 8.8847 12.4666ZM8.99705 6.93382C7.83532 6.93663 6.87552 7.86627 6.87068 8.99264C6.86632 10.1223 7.83823 11.0665 9.00335 11.0632C10.1651 11.0604 11.1249 10.1307 11.1297 9.00391C11.135 7.87379 10.1636 6.93147 8.99705 6.93382Z" fill="#8A8A8A"/>
</svg>
