<svg width="18" height="18" viewBox="0 0 18 18" fill="none" xmlns="http://www.w3.org/2000/svg">
<path d="M0 10.7933C0.0324007 10.6642 0.0619839 10.5346 0.0976716 10.4064C0.415104 9.26935 1.4369 8.48316 2.61365 8.47424C3.19874 8.46954 3.7843 8.4733 4.37315 8.46203C3.6439 8.32865 3.0466 7.98017 2.61178 7.3795C2.17883 6.78164 2.03044 6.11145 2.14737 5.38256C2.35445 4.0901 3.54106 3.14611 4.8878 3.20247C6.18289 3.25648 7.26996 4.31459 7.3742 5.63101C7.47469 6.89952 6.63368 8.19151 5.12447 8.4733C5.21792 8.4733 5.31089 8.47236 5.40434 8.4733C5.99553 8.48081 6.5933 8.43479 7.17604 8.50852C8.34622 8.65646 9.08064 9.35295 9.4131 10.4787C9.42108 10.5064 9.42766 10.5346 9.43939 10.5825C9.61267 10.5825 9.78688 10.5815 9.96109 10.5825C10.3992 10.5858 10.6363 10.9089 10.5016 11.3273C10.3316 11.8562 10.1578 12.384 9.97988 12.91C9.94607 13.0101 9.95123 13.0725 10.0334 13.1528C10.5091 13.615 10.6692 14.1753 10.4588 14.8051C10.2485 15.4339 9.78547 15.7885 9.12994 15.8777C9.01678 15.8932 8.97264 15.936 8.94024 16.0365C8.77635 16.5427 8.60637 17.0471 8.43732 17.5515C8.32509 17.8873 8.16966 17.9991 7.8142 17.9996C5.76403 18.0001 3.71434 18.0001 1.66417 17.9996C1.26316 17.9996 1.05513 17.7939 1.05467 17.3975C1.05373 16.7649 1.05654 16.1323 1.05091 15.4997C1.05044 15.4334 1.02226 15.3451 0.975307 15.3048C0.449853 14.8572 0.124907 14.3007 0.0258266 13.6145C0.0234787 13.599 0.00892192 13.5854 0 13.5704C0 12.6447 0 11.719 0 10.7933ZM8.32228 10.5825C8.19314 10.0236 7.55593 9.53658 6.92013 9.53235C5.47383 9.52296 4.02707 9.52061 2.58078 9.53282C1.75809 9.53986 1.07345 10.2293 1.05889 11.0521C1.04527 11.8073 1.04621 12.5634 1.05889 13.3186C1.07157 14.0471 1.62238 14.7074 2.34459 14.7952C2.87004 14.8591 3.40771 14.8271 3.93973 14.8332C3.96979 14.8337 4.01815 14.7994 4.02801 14.7712C4.1393 14.4477 4.24449 14.1222 4.35625 13.7817C3.78336 13.7817 3.23349 13.7831 2.68315 13.7812C2.32862 13.7798 2.11027 13.5652 2.10933 13.2148C2.10698 12.5296 2.10745 11.8444 2.10933 11.1592C2.11027 10.8196 2.33097 10.5815 2.63901 10.5834C2.94611 10.5853 3.16212 10.8229 3.16306 11.1648C3.16447 11.6274 3.16353 12.09 3.16353 12.5531C3.16353 12.6085 3.16353 12.6644 3.16353 12.7222C3.69321 12.7222 4.19565 12.7222 4.7042 12.7222C4.72909 12.6541 4.75492 12.5893 4.77699 12.5231C4.94415 12.0182 5.10944 11.5124 5.27802 11.0075C5.37945 10.7041 5.54662 10.5839 5.86546 10.5834C6.62101 10.5825 7.37655 10.5829 8.13163 10.5829C8.19361 10.5825 8.25607 10.5825 8.32228 10.5825ZM9.28819 11.6373C9.21071 11.6373 9.15389 11.6373 9.09707 11.6373C8.18986 11.6373 7.28264 11.6401 6.37542 11.634C6.23267 11.6331 6.16411 11.6678 6.11621 11.8139C5.57714 13.4633 5.02915 15.1099 4.4835 16.7569C4.46425 16.8147 4.4464 16.8729 4.4234 16.9452C5.44331 16.9452 6.43834 16.9462 7.4329 16.9415C7.47469 16.9415 7.53996 16.894 7.55452 16.8541C7.66628 16.5413 7.76818 16.2257 7.87289 15.9111C7.45075 15.7434 7.38172 15.6401 7.38172 15.1855C7.38172 14.559 7.38078 13.9329 7.38219 13.3064C7.38313 12.9424 7.59678 12.7288 7.96023 12.7269C8.24104 12.7255 8.52232 12.7302 8.80312 12.7231C8.85524 12.7217 8.93883 12.6888 8.95245 12.6508C9.0689 12.322 9.17362 11.9886 9.28819 11.6373ZM6.32611 5.83624C6.32611 4.96974 5.61893 4.25917 4.75351 4.25541C3.87916 4.25166 3.164 4.96364 3.164 5.83718C3.164 6.70321 3.87165 7.41472 4.7366 7.41848C5.61095 7.42176 6.32658 6.70978 6.32611 5.83624ZM3.66362 15.8763C3.13206 15.8763 2.62727 15.8763 2.11731 15.8763C2.11731 16.221 2.11731 16.5747 2.11731 16.9448C2.49767 16.9448 2.87004 16.9471 3.24195 16.9405C3.27575 16.9401 3.32553 16.8851 3.33915 16.8452C3.44668 16.5376 3.54717 16.2276 3.66362 15.8763ZM8.45 13.784C8.45 14.1494 8.45 14.4904 8.45 14.8351C8.63924 14.8351 8.81439 14.8422 8.98907 14.8332C9.26659 14.8191 9.48306 14.5914 9.48964 14.3204C9.49621 14.0499 9.28725 13.8066 9.01255 13.7864C8.82801 13.7728 8.64159 13.784 8.45 13.784Z" fill="#8A8A8A"/>
<path d="M16.6255 0.000939291C16.8701 0.10614 17.1378 0.177526 17.3542 0.324525C17.7712 0.607721 17.9877 1.03275 17.9915 1.53621C18.0018 2.98319 18.0032 4.43017 17.9919 5.87714C17.9854 6.72626 17.2885 7.40819 16.4339 7.41617C15.4849 7.42509 14.5359 7.4157 13.5873 7.42322C13.5009 7.42369 13.3939 7.46877 13.3323 7.52936C12.7261 8.1244 12.1274 8.72695 11.5273 9.3281C11.362 9.49341 11.1742 9.57654 10.9399 9.4967C10.7131 9.41968 10.5825 9.23135 10.5811 8.96976C10.5788 8.46066 10.5802 7.95157 10.5802 7.41805C10.4153 7.41805 10.2594 7.41852 10.104 7.41805C9.11181 7.41617 8.43703 6.74364 8.43609 5.75363C8.43515 4.40011 8.43562 3.04706 8.43609 1.69354C8.43609 0.804503 8.8897 0.232944 9.75982 0.0234823C9.77625 0.0197251 9.79128 0.00798397 9.80678 0C12.0795 0.000939291 14.3523 0.000939291 16.6255 0.000939291ZM11.6344 7.72802C12.0269 7.33492 12.3904 6.98034 12.7421 6.61496C12.9121 6.43884 13.1004 6.35853 13.3483 6.36041C14.3551 6.36886 15.3623 6.36511 16.3691 6.36323C16.7217 6.36276 16.9406 6.14531 16.941 5.79449C16.9424 4.40668 16.9424 3.01888 16.941 1.63108C16.9406 1.26945 16.7236 1.05576 16.3583 1.05576C14.2621 1.05482 12.1664 1.05482 10.0702 1.05576C9.70629 1.05576 9.49028 1.27086 9.49028 1.6339C9.48934 3.01559 9.48934 4.39776 9.49028 5.77946C9.49075 6.15189 9.70535 6.36229 10.0824 6.36323C10.4102 6.36417 10.7379 6.36182 11.0662 6.36417C11.4169 6.36651 11.6311 6.58302 11.6339 6.93713C11.6358 7.18276 11.6344 7.42838 11.6344 7.72802Z" fill="#8A8A8A"/>
<path d="M12.7011 4.08778C12.7842 3.97695 12.8325 3.89523 12.8973 3.82948C13.2256 3.49556 13.5547 3.16305 13.89 2.83618C14.1103 2.62155 14.423 2.61967 14.6329 2.81786C14.8423 3.01605 14.862 3.34292 14.6512 3.55943C14.1243 4.09952 13.59 4.63351 13.0504 5.16092C12.8372 5.36944 12.5381 5.36334 12.3226 5.15763C12.0516 4.89933 11.7873 4.63398 11.5281 4.36346C11.3196 4.14555 11.3243 3.82196 11.5248 3.62001C11.7253 3.41854 12.0493 3.41196 12.2676 3.61861C12.4071 3.75058 12.5292 3.89992 12.7011 4.08778Z" fill="#8A8A8A"/>
</svg>
