<svg width="18" height="17" viewBox="0 0 18 17" fill="none" xmlns="http://www.w3.org/2000/svg">
<path d="M0 14.4099C0 10.3552 0 6.30052 0 2.24585C0.00986309 2.22565 0.0244229 2.20593 0.0281803 2.18432C0.265834 0.849987 1.27844 0.000352253 2.63485 0.000352253C6.54768 -0.000117418 10.461 -0.000117418 14.3738 0.000352253C15.4334 0.000352253 16.1313 0.701571 16.1323 1.76444C16.1327 2.38534 16.1323 3.00625 16.1323 3.62715C16.1323 3.68915 16.1323 3.75067 16.1323 3.82488C16.1975 3.82488 16.2379 3.82441 16.2779 3.82488C17.3191 3.84179 17.9997 4.52939 17.9997 5.56689C18.0001 8.68316 18.0006 11.7994 17.9973 14.9162C17.9973 15.0843 17.9818 15.2571 17.9405 15.4196C17.7446 16.1852 17.0974 16.6554 16.2539 16.6554C11.7784 16.6558 7.30291 16.6558 2.82789 16.6554C2.71094 16.6554 2.59352 16.6568 2.47657 16.6535C1.36017 16.6206 0.402038 15.8724 0.0976915 14.7969C0.0615269 14.6691 0.0324073 14.539 0 14.4099ZM16.8617 13.0154C16.7809 13.0154 16.7062 13.0154 16.632 13.0154C15.2375 13.0135 13.8426 13.0375 12.4491 13.0023C11.1199 12.9684 10.0242 11.8182 9.98708 10.4881C9.94481 8.98516 11.119 7.76871 12.6215 7.76495C13.969 7.76166 15.3164 7.76401 16.6639 7.76401C16.7306 7.76401 16.7978 7.76401 16.8715 7.76401C16.8715 7.03039 16.8715 6.32729 16.8715 5.62466C16.8715 5.13479 16.693 4.95397 16.2088 4.95397C11.6915 4.95397 7.17469 4.95256 2.6574 4.95585C2.14734 4.95632 1.67109 4.85111 1.23148 4.58857C1.20424 4.5726 1.17089 4.56696 1.12909 4.55287C1.12909 4.63835 1.12909 4.70833 1.12909 4.77831C1.12909 7.02804 1.12909 9.27776 1.12909 11.5275C1.12909 12.3771 1.12251 13.2268 1.13144 14.0759C1.13754 14.6964 1.42263 15.1604 1.99798 15.4013C2.21168 15.491 2.46436 15.5206 2.69967 15.5211C7.19912 15.5277 11.6986 15.5263 16.1985 15.5263C16.2337 15.5263 16.2689 15.5272 16.3042 15.5258C16.662 15.515 16.8701 15.3069 16.8715 14.9504C16.8739 14.3587 16.8725 13.7669 16.872 13.1751C16.8715 13.1295 16.8659 13.084 16.8617 13.0154ZM15.0018 3.81737C15.0018 3.74363 15.0018 3.68633 15.0018 3.62856C15.0018 3.00765 15.0022 2.38675 15.0018 1.76538C15.0013 1.32623 14.8083 1.12991 14.3705 1.12991C10.4568 1.12944 6.54346 1.12897 2.62969 1.13226C2.46765 1.13226 2.29998 1.15152 2.14452 1.19519C1.46021 1.38635 1.01308 2.11152 1.17371 2.75121C1.33293 3.38621 1.89371 3.82394 2.56722 3.82394C6.66228 3.82582 10.7578 3.82488 14.8529 3.82441C14.8933 3.82488 14.9337 3.82066 15.0018 3.81737ZM16.8621 8.89169C16.678 8.89169 16.5038 8.89169 16.3295 8.89169C15.0943 8.89169 13.859 8.88559 12.6243 8.89404C11.6812 8.90062 11.0006 9.70375 11.1401 10.6257C11.2514 11.3636 11.8705 11.8811 12.6604 11.8835C14.007 11.8877 15.3531 11.8849 16.6996 11.8844C16.7508 11.8844 16.802 11.8788 16.8621 11.875C16.8621 10.8845 16.8621 9.90289 16.8621 8.89169Z" fill="#8A8A8A"/>
<path d="M13.6412 10.3852C13.6431 10.837 13.2828 11.2043 12.8334 11.2095C12.3778 11.2147 12.0021 10.8413 12.0044 10.3871C12.0068 9.93762 12.374 9.57127 12.8226 9.5708C13.2706 9.56986 13.6393 9.93668 13.6412 10.3852Z" fill="#8A8A8A"/>
</svg>
