<svg width="19" height="19" viewBox="0 0 19 19" fill="none" xmlns="http://www.w3.org/2000/svg">
    <path d="M0 4.21603C0.118302 3.89929 0.193187 3.55727 0.362874 3.27015C0.840465 2.46053 1.57976 2.03044 2.52498 2.02373C4.77751 2.00833 7.03003 2.01701 9.28256 2.01978C9.80636 2.02057 10.1832 2.38826 10.1768 2.87443C10.1704 3.35112 9.79401 3.70261 9.27738 3.70301C7.07106 3.70459 4.86514 3.7038 2.65882 3.7038C2.03265 3.7038 1.70005 4.02962 1.70005 4.6477C1.69925 8.50349 1.69925 12.3597 1.70005 16.2155C1.70005 16.826 2.02827 17.1538 2.64249 17.1542C6.5381 17.1554 10.4337 17.1554 14.3293 17.1542C14.9276 17.1542 15.2654 16.8166 15.2658 16.2261C15.2666 14.0255 15.2646 11.8249 15.267 9.62432C15.2678 9.0098 15.8246 8.60301 16.3907 8.79456C16.7468 8.91501 16.9627 9.23057 16.9643 9.65157C16.9674 10.4466 16.965 11.2412 16.965 12.0362C16.965 13.4485 16.9694 14.8608 16.9635 16.2731C16.9583 17.5037 16.1584 18.5049 14.9758 18.7739C14.8806 18.7956 14.7794 18.7995 14.6811 18.7995C10.6066 18.8007 6.53213 18.7968 2.45766 18.8035C1.54909 18.8051 0.879501 18.3916 0.411071 17.6637C0.214299 17.3576 0.133439 16.9781 0 16.6325C0 12.4936 0 8.35459 0 4.21603Z" fill="#59597C"/>
    <path d="M13.2827 2.70776C14.2825 3.69906 15.2739 4.68206 16.2733 5.67296C16.2403 5.70811 16.1972 5.7563 16.1518 5.80132C14.0017 7.93359 11.8503 10.0647 9.70336 12.1997C9.56036 12.3419 9.40302 12.4244 9.20745 12.462C8.28532 12.6401 7.3644 12.8241 6.44307 13.0054C6.05869 13.0808 5.80774 12.8462 5.88223 12.4726C6.07343 11.5137 6.26701 10.5556 6.46936 9.59905C6.49207 9.49084 6.5558 9.37512 6.63506 9.29653C8.82386 7.11923 11.017 4.94588 13.2094 2.77253C13.2365 2.74568 13.2664 2.72198 13.2827 2.70776Z" fill="#59597C"/>
    <path d="M17.2253 4.75275C16.208 3.74447 15.2205 2.76542 14.2036 1.75714C14.7003 1.29585 15.1684 0.776508 15.7196 0.367746C16.5366 -0.2373 17.7057 -0.0686609 18.4143 0.675009C19.1146 1.40999 19.2082 2.56321 18.5724 3.34677C18.1638 3.85032 17.6742 4.28949 17.2253 4.75275Z" fill="#59597C"/>
</svg>
