<svg width="31" height="38" viewBox="0 0 31 38" fill="none" xmlns="http://www.w3.org/2000/svg">
    <path d="M15.8139 0.000988043C16.1565 0.0889239 16.5041 0.159075 16.8398 0.265784C20.648 1.48108 22.0096 6.13377 19.4622 9.2135C19.3684 9.32614 19.2726 9.43779 19.1749 9.55339C19.8838 9.8419 20.5789 10.1304 21.2819 10.4001C21.3579 10.4298 21.4922 10.3685 21.5742 10.3132C23.7997 8.81532 26.2602 7.94683 28.9033 7.56545C29.8068 7.43502 30.4081 8.04564 30.2748 8.95266C29.8966 11.5324 29.0682 13.9462 27.6168 16.1259C27.4954 16.3086 27.5092 16.442 27.5921 16.6278C29.6676 21.2943 29.1176 25.6585 26.0805 29.7391C25.96 29.9012 25.8751 30.1324 25.8731 30.3319C25.8583 32.4147 25.8652 34.4975 25.8633 36.5793C25.8623 37.4399 25.4318 37.8648 24.5639 37.8658C23.4432 37.8668 22.3226 37.8677 21.2019 37.8658C20.5167 37.8638 20.1553 37.596 19.9569 36.94C19.6972 36.0833 19.4424 35.2247 19.1759 34.3385C16.4823 35.0973 13.8105 35.0963 11.12 34.3365C10.8554 35.2158 10.6006 36.0616 10.3449 36.9074C10.1326 37.6089 9.78705 37.8658 9.05147 37.8668C7.91897 37.8677 6.78548 37.8697 5.65297 37.8658C4.8858 37.8638 4.4326 37.4142 4.43161 36.6505C4.42865 34.5558 4.43655 32.4602 4.42174 30.3655C4.41976 30.1531 4.34077 29.9031 4.21242 29.7371C2.33248 27.3095 1.38659 24.5736 1.4873 21.4959C1.54062 19.8528 1.91878 18.2778 2.62869 16.7938C2.77778 16.4825 2.77877 16.2671 2.5813 15.9658C1.16641 13.8109 0.36566 11.4228 0.0141596 8.87856C-0.100374 8.0486 0.493029 7.44787 1.31945 7.56051C3.95274 7.91917 6.40831 8.77185 8.62493 10.2598C8.84906 10.41 9.01296 10.416 9.25585 10.3083C9.86209 10.0405 10.4871 9.81621 11.1259 9.56525C11.0173 9.43384 10.9008 9.2965 10.7872 9.15521C8.06707 5.78796 10.0053 0.747949 14.2805 0.068175C14.3496 0.0573065 14.4158 0.022725 14.4829 0C14.9272 0.000988043 15.3706 0.000988043 15.8139 0.000988043ZM23.6486 35.6367C23.6486 35.4717 23.6486 35.3384 23.6486 35.205C23.6486 33.381 23.6526 31.5561 23.6447 29.7322C23.6427 29.3528 23.7631 29.0416 24.0041 28.754C26.9819 25.1981 27.4233 20.9613 25.2373 16.8945C24.9736 16.4045 24.9963 15.9569 25.334 15.5192C26.4725 14.044 27.1932 12.3683 27.6889 10.5859C27.7353 10.4179 27.7629 10.244 27.8093 10.0257C25.7803 10.5227 23.9448 11.2637 22.3423 12.5106C21.8644 12.8821 21.4043 12.9671 20.8445 12.6805C17.0461 10.742 13.2399 10.741 9.44246 12.6875C8.93595 12.9473 8.48176 12.9206 8.03449 12.5679C6.47051 11.3348 4.67746 10.5829 2.76495 10.0879C2.68892 10.0682 2.60598 10.0731 2.50527 10.0652C2.51712 10.1561 2.51811 10.2164 2.53292 10.2737C3.01475 12.151 3.73848 13.9186 4.92924 15.4668C5.29358 15.9411 5.32912 16.4065 5.03785 16.938C2.88145 20.8764 3.34058 25.3028 6.25428 28.7056C6.52481 29.0218 6.65613 29.3607 6.65416 29.7806C6.6433 31.5927 6.64922 33.4048 6.64922 35.2158C6.64922 35.3482 6.64922 35.4806 6.64922 35.6298C7.25743 35.6298 7.8301 35.6298 8.4166 35.6298C8.69701 34.6892 8.97347 33.7575 9.25289 32.8267C9.5333 31.893 10.0724 31.6243 10.9956 31.9523C13.7553 32.9335 16.5159 32.9423 19.2766 31.9592C20.2412 31.6154 20.7606 31.8832 21.0558 32.8732C21.3303 33.7921 21.6058 34.71 21.8822 35.6348C22.4657 35.6367 23.0305 35.6367 23.6486 35.6367ZM18.5469 5.6437C18.5568 3.76642 17.0333 2.22606 15.1622 2.22013C13.303 2.2142 11.7677 3.72591 11.7509 5.57948C11.7331 7.45775 13.2487 9.00799 15.1168 9.02182C16.9908 9.03763 18.538 7.51407 18.5469 5.6437Z" fill="#A180B4"/>
    <path d="M14.8033 29.7338C13.3084 29.7002 11.5845 29.2931 10.1252 28.1025C7.95005 26.327 7.95202 23.5299 10.1252 21.7484C11.3485 20.7456 12.7871 20.2782 14.3392 20.1587C16.4394 19.9966 18.42 20.3662 20.1153 21.705C22.3724 23.4884 22.3615 26.3537 20.1173 28.1539C18.8525 29.1676 17.0732 29.7338 14.8033 29.7338ZM14.9415 22.3294C14.669 22.365 14.1625 22.3966 13.6718 22.5043C12.722 22.7128 11.8353 23.0724 11.1728 23.8302C10.5537 24.5387 10.533 25.341 11.1866 26.0178C11.5371 26.3804 11.9725 26.7005 12.4287 26.9169C13.9117 27.6214 15.4609 27.6876 17.0347 27.2429C17.8157 27.0226 18.5326 26.6778 19.0875 26.0652C19.7421 25.3439 19.7598 24.5268 19.1013 23.8154C18.8386 23.5309 18.5168 23.2829 18.1811 23.0882C17.2569 22.5487 16.234 22.3581 14.9415 22.3294Z" fill="#A180B4"/>
    <path d="M11.0829 18.2663C11.0849 18.866 10.5873 19.3709 9.98797 19.3778C9.3758 19.3847 8.8604 18.868 8.8683 18.2544C8.8762 17.6557 9.38271 17.1577 9.98105 17.1616C10.5804 17.1646 11.081 17.6675 11.0829 18.2663Z" fill="#A180B4"/>
    <path d="M20.3276 17.1616C20.927 17.1646 21.4276 17.6665 21.4295 18.2653C21.4315 18.8789 20.9112 19.3916 20.299 19.3778C19.7007 19.365 19.208 18.8542 19.2149 18.2554C19.2228 17.6566 19.7293 17.1587 20.3276 17.1616Z" fill="#A180B4"/>
</svg>
