<svg width="43" height="35" viewBox="0 0 43 35" fill="none" xmlns="http://www.w3.org/2000/svg">
    <path d="M0 18.2326C0.27382 17.8814 0.553314 17.5358 0.819331 17.1784C3.96045 12.9562 7.09945 8.73194 10.2399 4.50905C10.2881 4.44351 10.3434 4.38417 10.4144 4.29932C13.8846 8.9534 17.3414 13.5889 20.8344 18.2726C18.6744 18.2726 16.5597 18.2726 14.3762 18.2726C14.4777 19.0522 14.5295 19.7945 14.6749 20.5155C15.6879 25.549 18.2388 29.3414 22.4156 31.7388C23.8046 32.5363 25.29 33.1331 26.7315 33.8223C26.8421 33.8754 26.9514 33.932 27.0556 34.0445C26.9819 34.0445 26.9088 34.0445 26.835 34.0445C25.1183 34.0445 23.4016 34.0472 21.6842 34.0438C15.6467 34.0327 10.2916 30.2666 7.77265 24.2506C7.02496 22.4645 6.59224 20.5858 6.47023 18.6238C6.46526 18.5465 6.45888 18.4692 6.44895 18.3926C6.4454 18.3651 6.43192 18.3381 6.41703 18.2912C4.28109 18.2912 2.1409 18.2912 0.000709377 18.2912C0 18.2712 0 18.2519 0 18.2326ZM8.02447 16.5368C7.89679 20.4348 8.88353 23.9057 11.1457 26.8881C13.4115 29.8747 16.3256 31.6139 19.8924 32.1838C15.0707 28.2583 12.7071 23.0785 12.783 16.523C14.3677 16.523 15.8993 16.523 17.4741 16.523C15.1012 13.3412 12.7603 10.2014 10.4066 7.04651C8.04859 10.218 5.71829 13.3529 3.35181 16.5368C4.9401 16.5368 6.45888 16.5368 8.02447 16.5368Z" fill="#5E82D1"/>
    <path d="M42.8074 16.6064C42.5335 16.9576 42.254 17.3032 41.988 17.6606C38.8469 21.8828 35.7079 26.1071 32.5675 30.33C32.5193 30.3955 32.4639 30.4548 32.393 30.5397C28.9227 25.8856 25.4659 21.2501 21.9729 16.5664C24.133 16.5664 26.2477 16.5664 28.4311 16.5664C28.3297 15.7868 28.2779 15.0445 28.1325 14.3235C27.1195 9.28997 24.5686 5.49757 20.3917 3.10016C19.0028 2.30263 17.5173 1.70586 16.0759 1.01665C15.9652 0.963528 15.856 0.906956 15.7517 0.794502C15.8255 0.794502 15.8986 0.794502 15.9723 0.794502C17.689 0.794502 19.4057 0.791742 21.1231 0.795192C27.1606 0.80623 32.5157 4.57241 35.0347 10.5884C35.7824 12.3745 36.2151 14.2531 36.3378 16.2152C36.3428 16.2925 36.3492 16.3698 36.3591 16.4463C36.3627 16.4739 36.3761 16.5008 36.391 16.5478C38.527 16.5478 40.6672 16.5478 42.8074 16.5478C42.8074 16.5678 42.8074 16.5871 42.8074 16.6064ZM34.7829 18.3022C34.9106 14.4042 33.9238 10.9333 31.6616 7.95087C29.3959 4.96428 26.4817 3.22503 22.915 2.65517C27.7373 6.58003 30.101 11.7598 30.0251 18.3153C28.4403 18.3153 26.9088 18.3153 25.334 18.3153C27.7068 21.4971 30.0478 24.6369 32.4015 27.7918C34.7595 24.6203 37.0898 21.4854 39.4563 18.3015C37.8673 18.3022 36.3485 18.3022 34.7829 18.3022Z" fill="#5E82D1"/>
</svg>
