<svg width="17" height="21" viewBox="0 0 17 21" fill="none" xmlns="http://www.w3.org/2000/svg">
<path d="M3.14328 21C2.90532 20.9482 2.66337 20.9113 2.43038 20.8421C0.98368 20.4114 0.0766288 19.2656 0.0129062 17.7018C-0.0528077 16.0786 0.119443 14.4796 0.718336 12.9599C1.10515 11.9791 1.66671 11.1306 2.60761 10.6118C3.18808 10.2913 3.81137 10.1406 4.46254 10.1534C4.66814 10.1575 4.8842 10.2647 5.07188 10.3698C5.37407 10.539 5.65435 10.7492 5.94757 10.9358C7.65315 12.0207 9.35972 12.0191 11.0638 10.9322C11.3003 10.781 11.5422 10.6354 11.7643 10.4641C12.172 10.1493 12.621 10.1098 13.1054 10.1832C14.4282 10.3831 15.3621 11.1296 15.9923 12.3196C16.5549 13.3824 16.8078 14.5359 16.9203 15.7254C16.9781 16.336 17.0054 16.9528 16.9985 17.566C16.9771 19.3978 15.7559 20.7611 13.9866 20.9621C13.9428 20.9672 13.9005 20.9872 13.8571 21.0005C10.2862 21 6.71473 21 3.14328 21ZM8.51141 19.7695C8.51141 19.7685 8.51141 19.7675 8.51141 19.7665C10.1906 19.7665 11.8698 19.7808 13.549 19.7619C14.9608 19.746 15.8231 18.8252 15.8086 17.3747C15.8032 16.8287 15.7833 16.2801 15.7235 15.7382C15.6165 14.7646 15.4203 13.8115 14.9593 12.9374C14.5392 12.1411 13.9487 11.5772 13.0502 11.4172C12.7798 11.369 12.5334 11.3777 12.3029 11.5674C12.1227 11.7161 11.9181 11.834 11.7209 11.9607C9.84162 13.1696 7.89559 13.3255 5.8953 12.3144C5.42136 12.075 4.98825 11.75 4.53522 11.4675C4.47448 11.4295 4.4028 11.3803 4.33858 11.3834C3.68691 11.4131 3.10296 11.6218 2.63599 12.1099C2.25315 12.5103 1.98582 12.9886 1.79067 13.509C1.29035 14.8379 1.16987 16.2294 1.20472 17.6367C1.22364 18.3976 1.54424 19.021 2.19889 19.423C2.64594 19.6978 3.14179 19.7701 3.65306 19.7701C5.27251 19.769 6.89196 19.7695 8.51141 19.7695Z" fill="#EBB48E"/>
<path d="M8.83897 0C9.10382 0.0548584 9.37066 0.101514 9.63401 0.165088C11.4407 0.600879 12.9839 2.37583 13.2264 4.27485C13.3857 5.52429 13.2109 6.70606 12.5249 7.76323C11.6139 9.16699 10.3539 9.98423 8.68763 10.1006C6.50015 10.2529 4.69999 8.92756 3.88304 7.12852C3.11588 5.43919 3.42603 3.18794 4.6293 1.78777C5.36758 0.927979 6.25721 0.335815 7.35842 0.105103C7.5456 0.065625 7.73478 0.035376 7.92296 0.000512695C8.22813 0 8.5333 0 8.83897 0ZM12.0928 5.0521C12.0848 2.92134 10.434 1.22688 8.36902 1.23098C6.30251 1.23508 4.65369 2.93826 4.65767 5.0644C4.66215 7.18901 6.32541 8.89732 8.38047 8.88706C10.449 8.8763 12.1008 7.17004 12.0928 5.0521Z" fill="#EBB48E"/>
</svg>
