<svg width="26" height="26" viewBox="0 0 26 26" fill="none" xmlns="http://www.w3.org/2000/svg">
<path d="M25.0013 4.84577C25.0013 10.2825 25.0013 15.7199 25.0013 21.1567C24.9868 21.2001 24.9654 21.2416 24.9579 21.2862C24.678 22.9857 23.7284 24.1426 22.1234 24.7531C21.8146 24.8707 21.48 24.9197 21.1574 25.0002C15.7198 25.0002 10.2829 25.0002 4.84528 25.0002C4.80189 24.9858 4.75975 24.9637 4.71573 24.9568C2.54976 24.6343 1.00892 22.8813 1.00515 20.6876C0.995716 15.5653 1.00201 10.4422 1.00263 5.31921C1.00263 4.69424 1.11269 4.08687 1.38879 3.52666C2.20386 1.87117 3.54532 1.01231 5.38929 1.00728C10.1923 0.994072 14.9959 1.00287 19.7989 1.00287C20.1505 1.00287 20.502 0.996587 20.853 1.0079C22.5995 1.06512 24.1334 2.17046 24.7271 3.81211C24.8478 4.1466 24.912 4.50122 25.0013 4.84577ZM2.7183 12.9924C2.7183 15.4999 2.71705 18.0073 2.72019 20.5141C2.72019 20.7323 2.72208 20.9542 2.7617 21.1674C3.00383 22.4626 4.03965 23.2831 5.42891 23.2837C10.4753 23.2856 15.5211 23.285 20.5674 23.2825C20.77 23.2825 20.9756 23.2775 21.1737 23.2397C22.4529 22.997 23.2825 21.9697 23.2837 20.6147C23.2875 15.5376 23.2881 10.4605 23.2831 5.38335C23.2818 3.8184 22.1944 2.72312 20.6328 2.72124C15.5475 2.71495 10.4627 2.71369 5.37734 2.72878C4.99056 2.73004 4.57234 2.80549 4.22266 2.96519C3.19942 3.43423 2.7183 4.27801 2.7183 5.39969C2.7183 7.93102 2.7183 10.4617 2.7183 12.9924Z" fill="#474747" stroke="#474747" stroke-width="0.3"/>
<path d="M12.1484 12.1477C12.1484 12.0113 12.1484 11.9107 12.1484 11.8101C12.1496 10.7632 12.1434 9.71633 12.1559 8.67009C12.161 8.23751 12.4874 7.91559 12.9232 7.86466C13.3232 7.81814 13.7194 8.0885 13.8219 8.49278C13.8521 8.61162 13.8521 8.73988 13.8527 8.86437C13.8553 9.86408 13.854 10.8638 13.854 11.8641C13.854 11.9484 13.854 12.0326 13.854 12.1477C13.9609 12.1477 14.0439 12.1477 14.1269 12.1477C15.1735 12.1477 16.2206 12.1414 17.2671 12.1508C17.8665 12.1565 18.2576 12.6702 18.1086 13.2291C18.0067 13.6114 17.6765 13.8503 17.2243 13.8516C16.1929 13.8554 15.1621 13.8529 14.1307 13.8529C14.0471 13.8529 13.9634 13.8529 13.8534 13.8529C13.8534 13.9723 13.8534 14.0635 13.8534 14.1553C13.8534 15.194 13.8597 16.2333 13.8496 17.272C13.8439 17.8687 13.3226 18.2591 12.7654 18.107C12.3911 18.0045 12.1509 17.6775 12.149 17.2418C12.1446 16.2107 12.1471 15.1795 12.1471 14.1484C12.1471 14.0635 12.1471 13.978 12.1471 13.8535C12.0421 13.8535 11.9522 13.8535 11.8622 13.8535C10.8157 13.8529 9.76859 13.8541 8.72208 13.8516C8.38058 13.851 8.12021 13.6976 7.96047 13.3958C7.80513 13.1021 7.82336 12.8047 8.00449 12.5287C8.18688 12.2514 8.45919 12.1452 8.78749 12.1464C9.81072 12.1508 10.834 12.1477 11.8572 12.1477C11.944 12.1477 12.0283 12.1477 12.1484 12.1477Z" fill="#474747" stroke="#474747" stroke-width="0.3"/>
</svg>
