<svg width="28" height="24" viewBox="0 0 28 24" fill="none" xmlns="http://www.w3.org/2000/svg">
<path d="M0 6.76534C0.10439 6.34429 0.245708 5.94355 0.557458 5.61778C0.882701 5.27799 1.28393 5.08673 1.737 4.98515C1.82292 4.96553 1.90814 4.94311 2.00046 4.91999C1.10639 3.8467 1.94365 2.79651 2.95488 2.47635C3.20414 2.39718 3.2645 2.28579 3.28154 2.04969C3.37102 0.790035 4.78135 -0.229319 6.08446 0.0446108C6.44805 0.120975 6.78181 0.32975 7.13546 0.462861C7.25973 0.5091 7.41028 0.551135 7.53314 0.525213C8.56 0.304528 9.53928 0.376689 10.3858 1.03874C10.6563 1.25032 10.8715 1.28745 11.2038 1.23841C12.2733 1.08148 13.1873 1.40375 13.8498 2.27598C13.9854 2.45463 14.1168 2.421 14.2716 2.38247C15.0088 2.19962 15.6791 2.31661 16.2692 2.80562C16.6314 3.10617 16.853 3.4922 16.9503 3.94408C17.4609 6.31486 17.9764 8.68495 18.4714 11.0592C18.6944 12.1304 18.2548 12.9508 17.2627 13.4195C17.2308 13.4349 17.2017 13.4566 17.1463 13.4903C17.4254 14.0465 17.7264 14.5888 17.9707 15.1549C18.1106 15.4792 18.2917 15.6025 18.6439 15.5612C18.9308 15.5276 19.2255 15.5542 19.5607 15.5542C19.5607 15.4253 19.5607 15.3125 19.5607 15.1997C19.5607 12.5024 19.592 9.80448 19.5472 7.10793C19.5252 5.80834 20.1125 5.45524 21.1479 5.5281C21.3929 5.54562 21.64 5.53511 21.8857 5.5302C22.7166 5.51339 23.3316 5.85668 23.7612 6.56357C24.3137 7.47223 24.8953 8.36408 25.4542 9.26994C25.555 9.43387 25.6644 9.49763 25.8618 9.50743C27.1528 9.56979 27.995 10.4476 27.9979 11.729C28.0021 13.9856 28.0021 16.2422 27.9979 18.4988C27.995 19.8285 27.0775 20.7273 25.7269 20.7357C25.2717 20.7385 24.8172 20.7364 24.3343 20.7364C24.2292 21.8812 23.7335 22.8032 22.7606 23.4421C22.0839 23.8877 21.3318 24.0439 20.523 23.9809C18.9095 23.8554 17.7442 22.6546 17.4154 20.7526C16.2394 20.7526 15.0599 20.7526 13.8633 20.7526C13.7809 21.7887 13.347 22.6406 12.5233 23.2817C11.9012 23.7658 11.1854 23.99 10.3929 23.9991C8.99034 24.0152 7.16884 22.9874 6.9494 20.7357C6.4935 20.7357 6.03262 20.7371 5.57174 20.7357C5.05831 20.7343 4.58039 20.6187 4.16354 20.307C3.55779 19.8544 3.29788 19.2379 3.29007 18.5058C3.28368 17.9579 3.28865 17.4101 3.23326 16.8293C3.08129 17.0507 2.91937 17.2657 2.78019 17.4948C2.11053 18.5919 1.90601 19.7843 2.0452 21.0454C2.06224 21.1974 2.07715 21.3502 2.07857 21.5022C2.08212 21.8111 1.90814 22.0269 1.60349 22.1075C1.32938 22.1796 1.04177 22.0732 0.921758 21.7985C0.796064 21.5127 0.698775 21.2093 0.629892 20.9046C0.129245 18.6718 0.512009 16.5855 1.74623 14.656C2.0175 14.2322 2.34061 13.8392 2.65804 13.4468C2.7667 13.3123 2.77096 13.2205 2.69852 13.0699C1.91879 11.4572 1.14261 9.84302 0.375663 8.22466C0.227244 7.9108 0.123564 7.57592 0 7.25085C0 7.08901 0 6.92717 0 6.76534ZM16.3623 8.1504C11.9836 9.06046 7.62972 9.96492 3.25172 10.8743C3.75734 11.928 4.24236 12.941 4.72951 13.9534C4.95179 14.415 5.16199 14.5236 5.66335 14.4192C9.268 13.6696 12.8719 12.9186 16.4759 12.1655C16.9659 12.0632 17.142 11.7857 17.0405 11.3016C16.9354 10.8007 16.8281 10.3005 16.7209 9.80028C16.6037 9.25873 16.4858 8.71787 16.3623 8.1504ZM26.5229 16.9988C19.2625 16.9988 12.0169 16.9988 4.75153 16.9988C4.75153 17.5285 4.74798 18.0399 4.75295 18.5513C4.75721 19.0109 5.03416 19.2869 5.50072 19.2932C5.99285 19.2995 6.48497 19.2855 6.97639 19.2995C7.16031 19.3044 7.24695 19.2386 7.32933 19.0824C7.97342 17.8584 9.00596 17.1936 10.3985 17.1873C11.8032 17.181 12.8457 17.8465 13.4983 19.0774C13.5899 19.2505 13.6914 19.2995 13.8761 19.2988C15.0514 19.2918 16.2266 19.2883 17.4012 19.3009C17.6192 19.303 17.7165 19.2267 17.8124 19.0438C18.3499 18.0175 19.2064 17.4009 20.3611 17.2202C21.8481 16.9876 23.2783 17.7344 23.9657 19.062C24.0147 19.1566 24.1298 19.2806 24.2171 19.2841C24.781 19.3023 25.3462 19.2995 25.9108 19.2848C26.2055 19.2771 26.5037 19.0347 26.5165 18.7566C26.5407 18.1765 26.5229 17.5943 26.5229 16.9988ZM15.7722 5.38168C15.6947 5.01527 15.6287 4.68179 15.5527 4.35112C15.4284 3.80816 15.1806 3.65964 14.6217 3.77594C12.7519 4.16476 10.8814 4.55008 9.01164 4.93821C6.68736 5.42091 4.36379 5.90432 2.04022 6.38912C1.52538 6.49631 1.33648 6.86412 1.55236 7.33492C1.65746 7.56401 1.7796 7.78539 1.87405 8.01869C1.94862 8.20434 2.04733 8.24077 2.24758 8.19874C5.674 7.48064 9.10325 6.77094 12.5311 6.05915C13.5977 5.83776 14.6643 5.61357 15.7722 5.38168ZM21.0208 15.536C22.8742 15.536 24.6922 15.536 26.5393 15.536C26.5393 15.4316 26.5393 15.344 26.5393 15.2557C26.5393 14.0963 26.5407 12.9368 26.5385 11.778C26.5378 11.1867 26.2722 10.9254 25.675 10.9247C24.2178 10.924 22.7599 10.924 21.3027 10.9247C21.2075 10.9247 21.1117 10.9331 21.0208 10.9373C21.0208 12.4891 21.0208 14.0052 21.0208 15.536ZM12.9209 2.6578C12.2648 2.12535 11.6015 2.03498 10.8779 2.31031C10.4774 2.46234 10.3559 2.39858 10.0761 2.09873C9.86168 1.86894 9.59467 1.65456 9.30777 1.52985C8.7354 1.28045 8.12965 1.31337 7.55018 1.53546C7.21926 1.66227 6.96929 1.61673 6.7108 1.37152C6.22222 0.909135 5.53978 0.829969 4.96954 1.13262C4.40356 1.43317 4.17135 1.92639 4.26651 2.62767C4.31764 3.00599 4.20401 3.15732 3.81841 3.26941C3.51447 3.35769 3.21195 3.45577 2.91724 3.57066C2.70917 3.65123 2.56928 3.80816 2.58987 4.04776C2.61189 4.30628 2.75036 4.50455 3.00743 4.55289C3.23397 4.59562 3.48251 4.61244 3.7055 4.5676C6.01415 4.10101 8.31997 3.6197 10.6265 3.1405C11.3728 2.98637 12.1192 2.82664 12.9209 2.6578ZM2.42157 9.13542C2.52738 9.35891 2.6339 9.54667 2.7042 9.74633C2.77735 9.95441 2.89523 9.97823 3.09691 9.93619C6.97639 9.12491 10.8573 8.32064 14.7382 7.51357C15.2055 7.41618 15.672 7.3146 16.1641 7.21021C16.0946 6.89355 16.0321 6.61121 15.9689 6.32047C11.4339 7.26205 6.94159 8.19594 2.42157 9.13542ZM15.1877 13.9036C12.5978 14.4424 10.0428 14.9748 7.48698 15.5066C7.48982 15.5164 7.49266 15.5262 7.49621 15.536C10.3204 15.536 13.1446 15.536 16.0065 15.536C15.7274 14.979 15.4625 14.4522 15.1877 13.9036ZM8.90086 20.5935C8.90441 21.4174 9.58188 22.0858 10.4142 22.0858C11.2464 22.0858 11.9253 21.4167 11.9282 20.5942C11.931 19.7591 11.2372 19.0746 10.4007 19.088C9.56413 19.1006 8.89731 19.7696 8.90086 20.5935ZM19.3583 20.5788C19.3541 21.395 20.0287 22.0739 20.8553 22.0851C21.6904 22.097 22.3899 21.4209 22.3984 20.5942C22.407 19.7766 21.7039 19.0824 20.8716 19.0866C20.045 19.0915 19.3619 19.7647 19.3583 20.5788ZM21.0201 9.48151C21.966 9.48151 22.8955 9.48151 23.8351 9.48151C23.8287 9.43948 23.8322 9.41075 23.8201 9.39114C23.3621 8.65973 22.9069 7.92621 22.4382 7.2011C22.3764 7.10582 22.2472 7.00004 22.1421 6.99303C21.7742 6.96781 21.4035 6.98322 21.0201 6.98322C21.0201 7.81832 21.0201 8.6317 21.0201 9.48151Z" fill="#474747"/>
</svg>
