<svg width="24" height="24" viewBox="0 0 24 24" fill="none" xmlns="http://www.w3.org/2000/svg">
<path d="M0.000469649 10.604C0.103323 10.3553 0.290243 10.257 0.555595 10.2697C0.78948 10.281 1.0243 10.2669 1.25819 10.2744C1.5273 10.2829 1.67336 10.4197 1.7067 10.6876C1.71845 10.7803 1.7161 10.8748 1.7161 10.9683C1.71657 14.2596 1.71891 17.5509 1.71422 20.8427C1.71328 21.4139 1.90161 21.8765 2.42996 22.1327C2.62628 22.2276 2.86439 22.2775 3.08324 22.2775C9.02665 22.285 14.9705 22.285 20.9139 22.2822C21.7645 22.2817 22.2815 21.7326 22.282 20.8441C22.2834 17.7794 22.2825 14.7147 22.2825 11.65C22.2825 11.3609 22.2764 11.0713 22.2844 10.7821C22.2942 10.4244 22.4511 10.2763 22.8094 10.2725C23.0513 10.2702 23.2936 10.2664 23.5355 10.2739C23.8229 10.2829 23.9793 10.4408 23.9972 10.7276C24.0009 10.7901 23.9986 10.8527 23.9986 10.9152C23.9986 15.0588 23.9986 19.2024 23.9986 23.3461C23.9986 23.8778 23.8816 23.9967 23.3547 23.9967C15.7788 23.9967 8.20289 23.9962 0.626981 24C0.357403 24 0.135259 23.9483 0 23.6944C0.000469649 19.3312 0.000469649 14.9676 0.000469649 10.604Z" fill="#474747"/>
<path d="M5.9533 0C6.09232 0.123641 6.23791 0.2407 6.36941 0.371393C7.13353 1.13157 7.89342 1.89599 8.65613 2.65805C8.98066 2.98243 9.1765 2.98055 9.50526 2.65241C9.93123 2.22742 10.3572 1.8029 10.7804 1.37604C10.9283 1.22701 11.0899 1.13345 11.3026 1.22325C11.5111 1.31116 11.5741 1.48604 11.5741 1.69807C11.5731 3.51883 11.575 5.3396 11.5727 7.16037C11.5722 7.53928 11.4087 7.69489 11.0232 7.69536C9.21173 7.6963 7.40076 7.69489 5.58932 7.69724C5.36765 7.69771 5.19012 7.63989 5.10089 7.41658C5.01307 7.19751 5.11827 7.04331 5.2648 6.89757C5.6856 6.47917 6.10453 6.05841 6.52393 5.63813C6.85972 5.30152 6.8616 5.10219 6.5305 4.77029C5.73022 3.96874 4.92947 3.16813 4.12966 2.3661C3.79761 2.03326 3.79808 1.85132 4.13013 1.51754C4.54342 1.10243 4.9553 0.685902 5.37329 0.275489C5.47755 0.173003 5.60294 0.091673 5.71848 0.000470118C5.79738 0 5.87534 0 5.9533 0Z" fill="#474747"/>
<path d="M5.9761 13.7016C5.59381 13.7016 5.21151 13.703 4.82922 13.7011C4.44692 13.6992 4.28771 13.5474 4.28536 13.1623C4.2802 12.3739 4.27973 11.5851 4.28583 10.7967C4.28865 10.4258 4.44927 10.2744 4.81889 10.273C5.60649 10.2706 6.39456 10.2706 7.18216 10.273C7.55131 10.2739 7.71099 10.4262 7.71381 10.7981C7.71991 11.5945 7.72038 12.3909 7.71334 13.1873C7.71005 13.5441 7.54614 13.6978 7.19249 13.7006C6.78719 13.7039 6.38141 13.7011 5.9761 13.7016Z" fill="#474747"/>
<path d="M18.0071 10.2721C18.4049 10.2721 18.8027 10.2693 19.2005 10.273C19.5438 10.2758 19.7091 10.4253 19.7124 10.7695C19.7209 11.5814 19.7209 12.3937 19.7124 13.2056C19.7087 13.5465 19.5401 13.6992 19.1972 13.7007C18.4016 13.7035 17.6061 13.7035 16.8105 13.7007C16.4549 13.6997 16.2892 13.546 16.2863 13.1906C16.2793 12.3862 16.2788 11.5823 16.2863 10.7779C16.2896 10.4225 16.4535 10.2754 16.8138 10.2726C17.2116 10.2702 17.6093 10.2721 18.0071 10.2721Z" fill="#474747"/>
<path d="M6.01608 16.2779C6.41387 16.2779 6.81166 16.2751 7.20945 16.2788C7.54056 16.2821 7.70822 16.4302 7.71245 16.7602C7.72231 17.5801 7.72184 18.4 7.71292 19.2199C7.70916 19.5495 7.54009 19.7046 7.21321 19.706C6.40213 19.7098 5.59057 19.7102 4.77949 19.706C4.46389 19.7046 4.2934 19.5513 4.28918 19.2354C4.27884 18.408 4.27837 17.5801 4.28918 16.7527C4.2934 16.426 4.46389 16.2826 4.79968 16.2798C5.20452 16.2755 5.6103 16.2779 6.01608 16.2779Z" fill="#474747"/>
<path d="M12.0085 16.2779C12.4063 16.2779 12.8041 16.2751 13.2019 16.2788C13.5447 16.2821 13.7091 16.4321 13.7128 16.7762C13.7213 17.5881 13.7213 18.4005 13.7124 19.2124C13.7086 19.5527 13.54 19.7051 13.1962 19.706C12.4006 19.7088 11.6051 19.7088 10.8095 19.706C10.4549 19.7051 10.2896 19.5509 10.2863 19.195C10.2792 18.3906 10.2788 17.5867 10.2868 16.7823C10.29 16.4274 10.4544 16.2807 10.8151 16.2784C11.2129 16.276 11.6107 16.2779 12.0085 16.2779Z" fill="#474747"/>
<path d="M18.0242 16.2778C18.422 16.2778 18.8198 16.2745 19.2176 16.2788C19.536 16.2825 19.7065 16.4287 19.7107 16.7447C19.722 17.5721 19.7215 18.3999 19.7117 19.2274C19.7079 19.5536 19.5355 19.7041 19.204 19.7055C18.4004 19.7088 17.5973 19.7088 16.7937 19.7055C16.4631 19.7041 16.2917 19.5527 16.2879 19.2259C16.2781 18.4061 16.2785 17.5862 16.2875 16.7663C16.2912 16.4259 16.4593 16.2807 16.8074 16.2778C17.2127 16.276 17.6184 16.2778 18.0242 16.2778Z" fill="#474747"/>
</svg>
