<svg width="24" height="25" viewBox="0 0 24 25" fill="none" xmlns="http://www.w3.org/2000/svg">
<path d="M12.5686 0C12.9653 0.0755865 13.3667 0.130985 13.7577 0.230046C16.5487 0.936615 18.6397 3.39388 18.904 6.26523C19.2279 9.7793 16.9435 12.9314 13.4901 13.7023C12.9845 13.815 12.454 13.8553 11.9343 13.8628C9.93628 13.892 7.9852 14.1624 6.11579 14.899C5.05669 15.3164 4.06377 15.8516 3.19855 16.6004C2.33521 17.3473 1.9033 18.3013 1.88734 19.4412C1.87936 20.0032 1.88358 20.5656 1.8864 21.1281C1.88969 21.7187 2.28122 22.1159 2.86946 22.1159C8.9598 22.1173 15.0506 22.1173 21.141 22.1159C21.7297 22.1159 22.1282 21.7192 22.1245 21.13C22.1198 20.3966 22.1423 19.6595 22.0761 18.9314C21.993 18.0173 21.5531 17.2577 20.8682 16.6473C20.1687 16.0239 19.3687 15.5581 18.5195 15.1704C18.0294 14.9464 17.8148 14.4962 17.9557 14.0243C18.1045 13.5253 18.6425 13.2032 19.119 13.406C20.6217 14.0445 22.0015 14.8708 22.9822 16.2262C23.5324 16.9863 23.8465 17.845 23.9582 18.7774C23.9643 18.8295 23.9864 18.8797 24.0005 18.9314C24.0005 19.806 24.0005 20.6807 24.0005 21.5553C23.9883 21.5745 23.9681 21.5924 23.9652 21.613C23.7915 22.8661 22.6493 24.0154 21.0029 24.0013C17.4435 23.9708 13.884 23.9919 10.3245 23.9919C7.81901 23.9919 5.31301 23.9966 2.80749 23.99C1.42961 23.9863 0.228728 22.9806 0.0634767 21.621C-0.0275991 20.8741 0.0015076 20.1098 0.0169999 19.3539C0.0484539 17.7901 0.624485 16.4459 1.76716 15.3741C3.05959 14.1619 4.60882 13.3868 6.28011 12.8427C6.75755 12.6873 7.24532 12.5647 7.73028 12.4267C7.71948 12.4009 7.71713 12.384 7.70727 12.3746C7.67911 12.3474 7.64812 12.3239 7.61855 12.2985C5.75853 10.7018 4.9027 8.68541 5.11302 6.23941C5.35151 3.469 7.39226 1.02394 10.0752 0.281689C10.5231 0.157746 10.9874 0.0924878 11.4437 0C11.8188 0 12.1935 0 12.5686 0ZM11.9944 11.9953C14.7854 12.0009 17.0637 9.73047 17.0665 6.94034C17.0693 4.1582 14.8084 1.8845 12.0296 1.87464C9.23632 1.86431 6.95379 4.12862 6.94627 6.91687C6.93876 9.70935 9.20533 11.9896 11.9944 11.9953Z" fill="#474747"/>
</svg>
