<svg width="26" height="26" viewBox="0 0 26 26" fill="none" xmlns="http://www.w3.org/2000/svg">
<path d="M3.25731 24.9993C2.82852 24.886 2.40786 24.7583 2.04918 24.4785C1.38752 23.9621 1.02571 23.2873 1.01381 22.4491C0.997539 21.326 1.00693 20.2018 1.01006 19.0787C1.01131 18.6599 1.3099 18.3507 1.70176 18.3451C2.10301 18.3394 2.41162 18.6524 2.4135 19.0825C2.41725 20.1592 2.4135 21.2359 2.41538 22.3126C2.41663 23.102 2.9099 23.5927 3.70364 23.5934C4.74902 23.5946 5.7944 23.5934 6.83915 23.594C7.2836 23.594 7.5609 23.7862 7.64729 24.1518C7.72554 24.4835 7.5584 24.7702 7.1753 24.9655C7.16341 24.9718 7.15715 24.9881 7.14776 25C5.85011 24.9993 4.55371 24.9993 3.25731 24.9993Z" fill="#474747" stroke="#474747" stroke-width="0.3"/>
<path d="M24.9993 7.14234C24.9824 7.16613 24.9618 7.18804 24.9492 7.21371C24.7796 7.54986 24.4691 7.717 24.1518 7.64251C23.8068 7.56113 23.5953 7.28632 23.5946 6.90447C23.5928 5.81211 23.5965 4.71976 23.5928 3.6274C23.5903 3.01581 23.2003 2.54068 22.6156 2.42988C22.5092 2.40985 22.3984 2.40985 22.2895 2.40985C21.2209 2.4086 20.1518 2.41298 19.0832 2.40735C18.5092 2.40422 18.1655 1.84082 18.4403 1.36257C18.5806 1.11843 18.7997 1.00325 19.0795 1.00325C20.2025 1.00325 21.3261 0.993859 22.4491 1.00701C23.6879 1.02203 24.7252 1.91031 24.9536 3.12536C24.9618 3.16918 24.9831 3.20987 24.9987 3.25243C24.9993 4.54886 24.9993 5.84591 24.9993 7.14234Z" fill="#474747" stroke="#474747" stroke-width="0.3"/>
<path d="M18.861 24.9994C18.8372 24.9825 18.8153 24.9618 18.7897 24.9493C18.4535 24.779 18.2864 24.4692 18.3615 24.1505C18.4423 23.8069 18.7189 23.5946 19.1008 23.594C20.1937 23.5921 21.2861 23.5965 22.379 23.5921C22.9893 23.5896 23.4645 23.1965 23.574 22.6106C23.594 22.5042 23.5934 22.3934 23.5934 22.2844C23.5947 21.2384 23.5934 20.1918 23.5947 19.1457C23.5953 18.7213 23.7925 18.4446 24.1518 18.3601C24.4842 18.2819 24.7721 18.4496 24.9656 18.8327C24.9718 18.8446 24.9881 18.8515 25 18.8603C25 20.1567 25 21.4538 25 22.7502C24.9856 22.7846 24.9643 22.8178 24.9574 22.8535C24.8272 23.5615 24.4804 24.1461 23.8739 24.5261C23.5339 24.739 23.1271 24.8454 22.7508 25C21.4538 24.9994 20.1574 24.9994 18.861 24.9994Z" fill="#474747" stroke="#474747" stroke-width="0.3"/>
<path d="M5.89772 16.7763C5.83324 13.1512 8.58378 10.1352 11.9365 9.61814C14.6376 9.20123 16.8298 10.1966 18.5474 12.2723C19.4764 13.3947 20.0417 14.6937 20.205 16.1497C20.3215 17.1845 20.1944 18.1867 19.733 19.1326C19.0971 20.4371 17.78 21.0951 16.3165 20.8428C14.9431 20.6055 13.8889 19.4957 13.7331 18.1103C13.683 17.6678 13.6667 17.2214 13.611 16.7801C13.5885 16.6036 13.5215 16.4252 13.4401 16.2643C13.2379 15.8655 12.8354 15.8167 12.5293 16.1522C12.2589 16.4483 12.2094 16.8127 12.252 17.1951C12.2633 17.2953 12.2921 17.3936 12.3077 17.4937C12.3559 17.8042 12.1706 18.0922 11.8689 18.1811C11.586 18.2643 11.2461 18.121 11.1522 17.8343C10.8166 16.8095 11.0739 15.5143 12.1662 14.9259C12.9938 14.4802 13.9015 14.7262 14.4129 15.5244C14.7903 16.114 14.8817 16.7795 14.9149 17.4624C14.9287 17.7504 14.95 18.0465 15.0307 18.3207C15.2536 19.0819 15.9415 19.6158 16.7115 19.6678C17.5866 19.7266 18.287 19.3373 18.6464 18.5792C19.0501 17.7279 19.1115 16.8283 18.9237 15.9231C18.4285 13.5375 17.0783 11.8298 14.7509 11.0379C12.6288 10.3161 10.714 10.8507 9.08081 12.3349C7.60037 13.6802 6.97878 15.3848 7.14529 17.3848C7.21915 18.2731 7.44764 19.095 7.97095 19.8274C8.18817 20.1317 8.11117 20.511 7.82197 20.7007C7.53652 20.8879 7.18222 20.8102 6.96876 20.5116C6.35593 19.654 6.03355 18.6919 5.9478 17.6465C5.92463 17.3573 5.91399 17.0668 5.89772 16.7763Z" fill="#474747" stroke="#474747" stroke-width="0.3"/>
<path d="M17.5089 17.1169C17.5089 17.2521 17.5102 17.3873 17.5089 17.5225C17.5064 17.9307 17.2554 18.2086 16.8936 18.2048C16.5393 18.2011 16.3083 17.9257 16.2883 17.53C16.262 17.0123 16.2808 16.4784 16.1562 15.9819C15.8326 14.6905 15.0457 13.7797 13.728 13.4298C12.4385 13.0874 11.1021 13.667 10.3334 14.8483C9.45573 16.196 9.50518 17.8706 10.513 19.2553C10.985 19.9044 11.5321 20.4985 12.0429 21.1201C12.1456 21.2453 12.2451 21.3755 12.3283 21.5138C12.4905 21.7836 12.4141 22.1254 12.1637 22.3088C11.9183 22.4891 11.569 22.4728 11.3731 22.2337C10.7046 21.4193 9.99595 20.6306 9.39877 19.7661C8.07983 17.8574 8.23007 15.3672 9.69986 13.6733C11.8175 11.2319 15.539 11.749 16.9831 14.6849C17.3599 15.4517 17.5277 16.2643 17.5089 17.1169Z" fill="#474747" stroke="#474747" stroke-width="0.3"/>
<path d="M20.4535 11.0861C20.4329 11.3665 20.2551 11.605 19.9903 11.6858C19.7305 11.7647 19.4757 11.6595 19.303 11.4235C19.0526 11.0805 18.8235 10.7142 18.5293 10.4125C17.4188 9.27196 16.0291 8.6491 14.4961 8.3023C12.8648 7.93359 11.3318 8.24158 9.85261 8.94582C8.76216 9.46539 7.77186 10.1227 6.98626 11.0567C6.88235 11.1806 6.79096 11.3158 6.69268 11.4448C6.47234 11.7334 6.11115 11.796 5.83384 11.595C5.56154 11.3978 5.49894 11.0441 5.69926 10.7487C6.34088 9.80218 7.19471 9.08166 8.15496 8.48259C9.37687 7.72013 10.6895 7.18741 12.1243 6.98772C13.3049 6.82371 14.456 6.98522 15.5859 7.32701C17.0927 7.78336 18.4379 8.52077 19.5158 9.68762C19.8163 10.0125 20.0585 10.3925 20.3164 10.7556C20.3834 10.8507 20.4085 10.9753 20.4535 11.0861Z" fill="#474747" stroke="#474747" stroke-width="0.3"/>
<path d="M12.9312 4.32976C14.8348 4.34228 16.5074 4.84057 18.0667 5.72759C18.5881 6.02431 19.0814 6.37049 19.5803 6.70477C19.7931 6.84749 19.8864 7.06033 19.8363 7.32074C19.7863 7.58053 19.6222 7.73702 19.3712 7.80025C19.1653 7.85221 18.9888 7.77709 18.8229 7.65627C18.1237 7.14421 17.3863 6.69663 16.5931 6.34357C14.0022 5.19112 11.447 5.30443 8.93996 6.58708C8.3409 6.89319 7.78378 7.2813 7.21289 7.64062C6.82666 7.88288 6.36845 7.73264 6.25515 7.31072C6.18691 7.05595 6.26078 6.83059 6.46923 6.6791C8.42541 5.2556 10.5687 4.34791 12.9312 4.32976Z" fill="#474747" stroke="#474747" stroke-width="0.3"/>
<path d="M5.1932 1.00336C5.75533 1.00336 6.31745 1.00211 6.88021 1.00399C7.33967 1.00524 7.65579 1.28694 7.66205 1.69634C7.66831 2.11512 7.34718 2.40871 6.87707 2.40934C5.81479 2.41059 4.75314 2.40871 3.69086 2.40997C2.91151 2.41122 2.41637 2.90387 2.41512 3.68135C2.41324 4.75931 2.41762 5.83727 2.41324 6.91522C2.41073 7.4517 1.92748 7.7985 1.45612 7.60632C1.17756 7.49239 1.01418 7.27454 1.01293 6.97469C1.00729 5.78781 0.98163 4.59906 1.02357 3.41343C1.06801 2.12013 2.18976 1.04969 3.48303 1.00962C4.05267 0.992096 4.62293 1.00649 5.1932 1.00649C5.1932 1.00587 5.1932 1.00462 5.1932 1.00336Z" fill="#474747" stroke="#474747" stroke-width="0.3"/>
</svg>
