<svg width="24" height="24" viewBox="0 0 24 24" fill="none" xmlns="http://www.w3.org/2000/svg">
<path d="M0 9.98493C0.0850961 9.59799 0.143912 9.20353 0.259668 8.82661C0.620701 7.64762 1.31273 6.69717 2.29321 5.95146C4.37431 4.36801 6.45103 2.77891 8.53088 1.19358C10.6063 -0.388627 13.3382 -0.398645 15.423 1.16853C16.0218 1.61871 16.6156 2.07641 17.2119 2.53034C17.2714 2.57542 17.3333 2.61737 17.4291 2.68562C17.4291 2.25861 17.4184 1.87104 17.4316 1.4841C17.4535 0.832307 18.0422 0.420946 18.6611 0.613791C19.0359 0.730249 19.2937 1.05771 19.2974 1.47721C19.3068 2.52408 19.3068 3.57096 19.2968 4.6172C19.293 4.99162 19.1009 5.27212 18.7618 5.43366C18.4014 5.60522 18.0635 5.53823 17.7525 5.30093C16.8528 4.6147 15.9568 3.92221 15.0514 3.24349C14.609 2.91165 14.1791 2.54161 13.6898 2.29805C12.282 1.59743 10.9161 1.74895 9.66466 2.69188C7.5698 4.26971 5.48932 5.86756 3.40697 7.46229C2.38457 8.24494 1.87524 9.28743 1.87524 10.576C1.87399 13.1537 1.87336 15.7315 1.87524 18.3092C1.87712 20.4712 3.52898 22.1229 5.68705 22.1235C9.89555 22.1241 14.1034 22.1248 18.3119 22.1235C20.455 22.1229 22.11 20.4687 22.1125 18.3217C22.1156 15.7283 22.1162 13.1349 22.1118 10.5415C22.1093 9.3131 21.6382 8.29941 20.6833 7.51676C20.2278 7.1436 20.154 6.57758 20.5025 6.15182C20.8404 5.73921 21.4129 5.69476 21.8603 6.06041C23.2212 7.17365 23.9539 8.61874 23.9764 10.3706C24.0109 13.0805 24.0033 15.7916 23.9808 18.502C23.9577 21.2783 21.7746 23.655 19.0146 23.958C18.9539 23.9649 18.8945 23.9856 18.8344 24C14.2742 24 9.71472 24 5.15457 24C5.0945 23.9856 5.03506 23.9649 4.97437 23.958C2.63485 23.7013 0.645729 21.9182 0.142661 19.6215C0.089476 19.3792 0.0481794 19.1344 0.00125141 18.8909C0 15.9218 0 12.9534 0 9.98493Z" fill="#474747"/>
<path d="M9.91456 9.36605C10.6244 9.36744 11.2112 9.94904 11.2112 10.6503C11.2112 11.387 10.6494 11.9575 9.91943 11.9631C9.17967 11.9686 8.60608 11.3891 8.61025 10.642C8.61512 9.94 9.20331 9.36396 9.91456 9.36605Z" fill="#474747"/>
<path d="M14.0791 9.36956C14.8105 9.37165 15.382 9.94768 15.3751 10.6761C15.3674 11.3954 14.8029 11.9575 14.084 11.9631C13.354 11.968 12.7769 11.3968 12.7755 10.6677C12.7741 9.93585 13.3456 9.36747 14.0791 9.36956Z" fill="#474747"/>
<path d="M9.90616 13.5361C10.639 13.534 11.2126 14.1051 11.2105 14.8342C11.2084 15.5626 10.6299 16.1352 9.90129 16.1289C9.18031 16.1234 8.61715 15.5612 8.61089 14.8419C8.60463 14.1114 9.17336 13.5381 9.90616 13.5361Z" fill="#474747"/>
<path d="M14.0687 13.5361C14.8015 13.5326 15.3757 14.1024 15.375 14.8322C15.3744 15.5606 14.7966 16.1338 14.0687 16.1296C13.3477 16.1255 12.7831 15.5647 12.7755 14.8454C12.7678 14.1142 13.3358 13.5396 14.0687 13.5361Z" fill="#474747"/>
</svg>
