<svg width="14" height="17" viewBox="0 0 14 17" fill="none" xmlns="http://www.w3.org/2000/svg">
<path d="M2.229 16.1419C2.10828 16.1129 1.98713 16.0863 1.86725 16.0539C0.769833 15.757 0.00482709 14.7738 0.00356955 13.6318C-0.00062226 9.92296 -0.0018798 6.2145 0.00398873 2.50561C0.00650382 1.12741 1.12236 0.0073365 2.49183 0.00354677C4.85601 -0.00276946 7.22019 0.00102028 9.58437 0.00228352C10.0337 0.0027046 10.3628 0.322305 10.3653 0.75223C10.3678 1.18973 10.0379 1.51397 9.58102 1.51439C7.26379 1.51523 4.94655 1.51439 2.62974 1.51481C1.91629 1.51481 1.50885 1.92199 1.50885 2.63488C1.50885 6.25955 1.50885 9.88422 1.50885 13.5089C1.50885 14.2209 1.91755 14.6285 2.63058 14.6285C4.94781 14.6285 7.26462 14.6281 9.58186 14.629C9.98134 14.629 10.2991 14.8871 10.3569 15.2505C10.4198 15.6455 10.2102 15.9794 9.81618 16.1133C9.79732 16.1196 9.78013 16.1322 9.76211 16.1419C7.25121 16.1419 4.7399 16.1419 2.229 16.1419Z" fill="#969696"/>
<path d="M11.3808 8.82809C11.3254 8.82809 11.2697 8.82809 11.2144 8.82809C9.32133 8.82809 7.42789 8.82851 5.53487 8.82767C5.1224 8.82725 4.81094 8.5687 4.74849 8.18089C4.67723 7.73707 5.02766 7.32188 5.48876 7.31641C6.02196 7.31051 6.55558 7.31472 7.08919 7.31472C8.46453 7.31472 9.83986 7.31472 11.2156 7.31472C11.2709 7.31472 11.3263 7.31472 11.4143 7.31472C11.3544 7.24903 11.3183 7.20735 11.2797 7.16861C10.5738 6.45909 9.86836 5.7483 9.16037 5.04088C8.94575 4.82655 8.8573 4.57475 8.93108 4.28083C9.07108 3.72585 9.74345 3.52962 10.1677 3.91449C10.2062 3.94986 10.2427 3.98734 10.28 4.02481C11.4189 5.16889 12.5578 6.31255 13.6967 7.45663C14.1021 7.86381 14.1008 8.27942 13.6938 8.68829C12.544 9.84332 11.3929 10.9975 10.2444 12.1542C10.0239 12.3761 9.77153 12.4789 9.46344 12.3938C8.93191 12.2468 8.73448 11.6076 9.08743 11.1824C9.12767 11.1339 9.17294 11.0901 9.21738 11.0459C9.90148 10.3587 10.5852 9.67152 11.2701 8.98515C11.3108 8.94431 11.3581 8.91062 11.4021 8.87399C11.395 8.85883 11.3879 8.84367 11.3808 8.82809Z" fill="#969696"/>
</svg>
