<svg width="19" height="21" viewBox="0 0 19 21" fill="none" xmlns="http://www.w3.org/2000/svg">
<path d="M12.8208 17.5556C12.3484 19.5146 10.7252 20.391 9.32639 20.3129C7.94109 20.2353 6.57098 19.2682 6.18459 17.5556C6.11653 17.5556 6.04173 17.5556 5.96692 17.5556C4.79254 17.5556 3.61816 17.5527 2.44379 17.5567C1.85547 17.5585 1.39989 17.3219 1.1423 16.7763C0.890322 16.2416 0.984813 15.7425 1.3324 15.2653C1.74748 14.6955 2.13444 14.1046 2.52703 13.5182C2.69014 13.2747 2.74807 12.9967 2.7475 12.7015C2.74469 11.1078 2.71376 9.51298 2.75313 7.92043C2.82625 4.98399 4.16992 2.83607 6.78246 1.6082C10.6026 -0.187661 15.1662 2.1693 16.0712 6.36979C16.1848 6.89816 16.2337 7.44949 16.2416 7.99107C16.2635 9.5417 16.2534 11.0923 16.2467 12.643C16.245 13.0168 16.34 13.3465 16.5521 13.6497C16.9525 14.2217 17.3479 14.7978 17.7394 15.3761C18.0459 15.8281 18.0842 16.3145 17.8429 16.8021C17.6005 17.2914 17.1893 17.5493 16.6522 17.5533C15.4497 17.5625 14.2472 17.5562 13.0447 17.5567C12.9682 17.5556 12.8923 17.5556 12.8208 17.5556ZM16.6241 16.1669C16.2163 15.5662 15.8288 14.9873 15.4323 14.4147C15.0672 13.8869 14.894 13.3057 14.8968 12.6596C14.903 11.1165 14.9002 9.57329 14.8974 8.02955C14.8968 7.79293 14.8867 7.55574 14.8631 7.32085C14.5267 3.95195 11.2651 1.68229 8.0682 2.58912C5.72113 3.25474 4.11143 5.39577 4.09793 7.88539C4.08949 9.4791 4.0923 11.0722 4.09793 12.6659C4.10018 13.3126 3.9247 13.8938 3.55911 14.4205C3.20196 14.9356 2.85268 15.4571 2.50003 15.9757C2.46178 16.0325 2.42354 16.0894 2.37179 16.1669C7.13005 16.1669 11.8585 16.1669 16.6241 16.1669ZM11.3787 17.5648C10.1161 17.5648 8.86912 17.5648 7.61994 17.5648C7.80611 18.3108 8.62502 18.9179 9.4535 18.9334C10.3225 18.9494 11.1543 18.3625 11.3787 17.5648Z" fill="#969696" stroke="#969696" stroke-width="0.5"/>
</svg>
