<svg width="24" height="24" viewBox="0 0 24 24" fill="none" xmlns="http://www.w3.org/2000/svg">
    <path d="M2.51866 21.6934C8.96808 21.6934 15.3902 21.6934 21.8481 21.6934C21.8481 21.5905 21.8481 21.4934 21.8481 21.3968C21.8481 19.0011 21.8459 16.6054 21.8496 14.21C21.8507 13.436 22.5436 12.9135 23.2525 13.1494C23.6398 13.2783 23.8852 13.5505 23.9676 13.9556C23.9909 14.0697 23.9986 14.1889 23.9986 14.3059C24.0001 17.0883 24.0005 19.8706 23.9994 22.6529C23.999 23.251 23.72 23.6714 23.2181 23.8062C23.0595 23.8488 22.8866 23.8491 22.7199 23.8495C17.5274 23.8517 12.3349 23.8514 7.14239 23.8514C5.29711 23.8514 3.45146 23.8517 1.60619 23.851C0.782778 23.8506 0.367008 23.4358 0.366638 22.6137C0.365899 19.848 0.362573 17.0827 0.373291 14.3171C0.37403 14.0826 0.428727 13.8264 0.535164 13.6193C0.75469 13.192 1.26064 13.0083 1.72075 13.1346C2.19898 13.266 2.51386 13.6649 2.51608 14.1737C2.52162 15.384 2.51829 16.5946 2.51829 17.8049C2.51829 19.007 2.51829 20.2091 2.51829 21.4108C2.51866 21.5005 2.51866 21.5901 2.51866 21.6934Z" fill="#D39980"/>
    <path d="M11.1138 13.822C11.1138 13.732 11.1138 13.642 11.1138 13.552C11.1138 9.56867 11.1131 5.58534 11.1164 1.60201C11.1164 1.4198 11.1268 1.2276 11.1837 1.05724C11.347 0.567659 11.8375 0.29324 12.363 0.37027C12.8434 0.440633 13.2193 0.858743 13.2481 1.35833C13.2544 1.4672 13.2529 1.57682 13.2529 1.68607C13.2533 5.63571 13.2529 9.58571 13.2529 13.5353C13.2529 13.6324 13.2529 13.7298 13.2529 13.8268C13.2895 13.8546 13.3261 13.8823 13.3627 13.9105C13.4048 13.8286 13.4296 13.7301 13.4913 13.6676C14.2227 12.9265 14.9537 12.1855 15.6962 11.4563C16.2956 10.8674 17.2672 11.1096 17.4908 11.9003C17.6135 12.3343 17.486 12.7058 17.1663 13.0243C16.0543 14.1323 14.9474 15.2456 13.8383 16.3569C13.5538 16.6421 13.2718 16.9302 12.9835 17.2117C12.4883 17.6957 11.87 17.6972 11.3784 17.2061C9.97037 15.8003 8.56525 14.3919 7.16235 12.9809C6.68856 12.5043 6.67747 11.8496 7.12392 11.41C7.55743 10.983 8.21379 11 8.67539 11.4592C9.41342 12.1932 10.1478 12.9313 10.881 13.6701C10.939 13.7287 10.9767 13.8075 11.0237 13.8772C11.0543 13.859 11.0839 13.8405 11.1138 13.822Z" fill="#D39980"/>
</svg>
