<svg width="19" height="19" viewBox="0 0 19 19" fill="none" xmlns="http://www.w3.org/2000/svg">
<path d="M18.9986 15.5256C18.8801 15.6469 18.7736 15.7835 18.6407 15.8864C18.3478 16.1134 18.0404 16.3221 17.7415 16.5417C17.511 16.7106 17.4575 16.884 17.5502 17.1573C17.681 17.5439 17.8174 17.9284 17.9487 18.315C18.0355 18.5699 17.9874 18.7607 17.8079 18.8983C17.626 19.0369 17.402 19.035 17.1903 18.8839C16.8532 18.6434 16.5196 18.3975 16.183 18.156C15.9297 17.9742 15.7587 17.9756 15.5069 18.157C15.1758 18.3955 14.8466 18.6365 14.5145 18.874C14.291 19.034 14.0664 19.0404 13.881 18.8988C13.6971 18.7582 13.655 18.5729 13.7487 18.2986C13.8766 17.924 14.0074 17.5508 14.1348 17.1762C14.2344 16.8836 14.1824 16.7126 13.9336 16.5303C13.6044 16.2888 13.2718 16.0528 12.9422 15.8123C12.7151 15.6469 12.6437 15.4526 12.7196 15.2201C12.7969 14.9821 12.9541 14.8787 13.247 14.8777C13.649 14.8762 14.0505 14.8802 14.4526 14.8762C14.8204 14.8728 14.9136 14.8002 15.0266 14.4504C15.1406 14.0972 15.2536 13.7439 15.3686 13.3911C15.4613 13.1064 15.611 12.9802 15.8489 12.9822C16.0854 12.9842 16.2306 13.1099 16.3243 13.3986C16.4408 13.7573 16.5548 14.1165 16.6718 14.4753C16.7749 14.7918 16.8726 14.8698 17.2081 14.8752C17.5849 14.8817 17.9631 14.8921 18.3388 14.8728C18.6427 14.8569 18.8658 14.9478 18.9991 15.2285C18.9986 15.3274 18.9986 15.4263 18.9986 15.5256Z" fill="#969696"/>
<path d="M6.81592 7.43925C4.87377 5.77228 4.85345 2.95458 6.49768 1.26923C8.0869 -0.359479 10.6497 -0.429537 12.3395 1.11023C14.1339 2.7459 14.2113 5.7842 12.1725 7.45763C12.3197 7.51924 12.461 7.57638 12.6012 7.637C13.9927 8.23869 15.1189 9.16633 15.9874 10.4095C16.2768 10.8239 16.2273 11.2686 15.8639 11.5234C15.4976 11.7803 15.0654 11.678 14.7754 11.2676C13.723 9.77996 12.3088 8.83393 10.5069 8.57358C7.86631 8.19199 5.74323 9.11864 4.15848 11.272C4.02166 11.4584 3.87295 11.6164 3.637 11.6571C3.32173 11.7118 3.06199 11.6114 2.8756 11.348C2.69467 11.0922 2.70112 10.7747 2.88899 10.4949C3.3837 9.75859 3.98498 9.12311 4.69234 8.58848C5.29809 8.13088 5.95638 7.76866 6.66572 7.49986C6.71182 7.48347 6.75693 7.46359 6.81592 7.43925ZM9.49171 6.91307C10.9823 6.91754 12.2012 5.70769 12.2076 4.2171C12.2141 2.71261 11.0066 1.49232 9.50658 1.48785C8.01651 1.48387 6.79709 2.69423 6.79114 4.18381C6.78519 5.68781 7.99321 6.9086 9.49171 6.91307Z" fill="#969696"/>
<path d="M7.49741 12.2658C7.74427 12.2658 7.99162 12.2712 8.23848 12.2643C8.45411 12.2583 8.58845 12.146 8.65289 11.9334C8.76789 11.5548 8.89578 11.1806 9.01822 10.8045C9.11587 10.5049 9.2621 10.3767 9.5045 10.3792C9.74045 10.3817 9.8847 10.5079 9.97888 10.7965C10.0998 11.1667 10.2188 11.5374 10.3402 11.9075C10.431 12.1838 10.5261 12.2633 10.826 12.2702C11.2276 12.2797 11.6291 12.2742 12.0311 12.2747C12.3905 12.2752 12.5476 12.3671 12.6274 12.624C12.7047 12.8714 12.6225 13.0518 12.3374 13.258C12.0271 13.4831 11.7153 13.7057 11.406 13.9317C11.1656 14.1071 11.1111 14.279 11.2067 14.5613C11.3376 14.9473 11.4739 15.3319 11.6053 15.7185C11.691 15.9714 11.6405 16.1626 11.4581 16.2988C11.2741 16.4359 11.0546 16.4305 10.8404 16.2774C10.5187 16.0474 10.199 15.8143 9.87826 15.5828C9.57489 15.3632 9.42469 15.3627 9.12727 15.5783C8.80705 15.8104 8.48732 16.0434 8.16561 16.2734C7.94404 16.4319 7.71651 16.4364 7.53261 16.2933C7.35366 16.1542 7.30954 15.9684 7.39778 15.709C7.52765 15.3289 7.66149 14.9498 7.79037 14.5697C7.88901 14.279 7.83548 14.1086 7.58565 13.9253C7.2565 13.6843 6.92389 13.4478 6.59425 13.2073C6.36821 13.0424 6.29782 12.8471 6.37465 12.6141C6.45149 12.381 6.60614 12.2772 6.88522 12.2747C7.08895 12.2727 7.29318 12.2742 7.49692 12.2742C7.49741 12.2712 7.49741 12.2687 7.49741 12.2658Z" fill="#969696"/>
<path d="M1.15081 14.8693C1.39767 14.8693 1.64503 14.8747 1.89189 14.8678C2.10751 14.8618 2.24284 14.751 2.30728 14.5379C2.42575 14.1478 2.55563 13.7608 2.68302 13.3732C2.77175 13.1034 2.92393 12.9802 3.15741 12.9817C3.39039 12.9832 3.5381 13.1059 3.62733 13.3797C3.74828 13.7498 3.86576 14.121 3.98671 14.4912C4.08486 14.7918 4.18549 14.8698 4.51562 14.8747C4.95432 14.8812 5.39301 14.8693 5.83171 14.8802C6.2129 14.8896 6.43596 15.3125 6.23372 15.6339C6.18613 15.7095 6.11029 15.7716 6.03693 15.8257C5.71373 16.0642 5.38607 16.2968 5.06188 16.5338C4.82097 16.7101 4.76546 16.8811 4.86113 17.1623C4.99199 17.5483 5.12831 17.9329 5.25967 18.3195C5.34592 18.5729 5.29536 18.7647 5.11393 18.9008C4.93052 19.0384 4.70994 19.034 4.49629 18.8814C4.16417 18.6444 3.83552 18.4029 3.5044 18.165C3.23474 17.9707 3.07016 17.9732 2.79852 18.1699C2.4783 18.402 2.15808 18.6345 1.83686 18.865C1.6024 19.0335 1.37685 19.0429 1.18849 18.8973C1.00557 18.7562 0.965423 18.5719 1.05911 18.2966C1.187 17.9225 1.31737 17.5488 1.44476 17.1742C1.5439 16.8826 1.49086 16.7121 1.24153 16.5293C0.912383 16.2883 0.579768 16.0518 0.250624 15.8113C0.024089 15.6459 -0.0467961 15.4516 0.0295417 15.2186C0.107367 14.9811 0.264008 14.8792 0.557462 14.8772C0.755246 14.8762 0.95303 14.8772 1.15081 14.8772C1.15081 14.8747 1.15081 14.8723 1.15081 14.8693Z" fill="#969696"/>
</svg>
