<?xml version="1.0" encoding="utf-8"?>
<!-- Generator: Adobe Illustrator 25.2.0, SVG Export Plug-In . SVG Version: 6.00 Build 0)  -->
<svg version="1.1" id="Layer_1" xmlns="http://www.w3.org/2000/svg" xmlns:xlink="http://www.w3.org/1999/xlink" x="0px" y="0px"
	 viewBox="0 0 25 25" style="enable-background:new 0 0 25 25;" xml:space="preserve">
<style type="text/css">
	.st0{fill:#A9A9A9;}
</style>
<path class="st0" d="M14.3,12.5c-0.2-0.1-0.3-0.2-0.4-0.3c-2.1-2-4.1-4.1-6.1-6.1C6.9,5.2,6.8,4.3,7.5,3.6C8.2,3,9.1,3,9.9,3.9
	c2.5,2.5,4.9,4.9,7.4,7.4c0.9,0.9,0.9,1.7,0,2.6c-2.5,2.5-5,5-7.4,7.4c-0.5,0.5-1,0.7-1.7,0.5c-1.1-0.3-1.5-1.6-0.8-2.4
	c0.1-0.1,0.2-0.3,0.3-0.4c2-2,4.1-4.1,6.1-6.1C13.9,12.7,14.1,12.7,14.3,12.5z"/>
</svg>
