<svg width="156" height="156" viewBox="0 0 156 156" fill="none" xmlns="http://www.w3.org/2000/svg">
    <g clip-path="url(#clip0_1019_2790)">
        <path d="M106.681 106.681C122.521 90.8408 122.521 65.1592 106.681 49.3192C90.8415 33.4792 65.1598 33.4792 49.3198 49.3192C33.4798 65.1592 33.4798 90.8408 49.3198 106.681C65.1598 122.521 90.8415 122.521 106.681 106.681Z" fill="#F9A140"/>
        <path opacity="0.1" d="M77.7316 33.7865C53.3137 33.9341 33.6373 53.8503 33.7867 78.2682C33.9343 102.686 53.8505 122.362 78.2684 122.213C102.686 122.065 122.363 102.149 122.213 77.7313C122.066 53.3134 102.149 33.637 77.7316 33.7865ZM78.2242 114.787C57.9058 114.911 41.3363 98.5405 41.2127 78.2239C41.089 57.9055 57.4593 41.336 77.7758 41.2124C98.0924 41.0888 114.664 57.459 114.786 77.7756C114.911 98.094 98.5407 114.664 78.2242 114.787Z" fill="#272525"/>
        <path d="M77.7039 29.2499C50.7806 29.4141 29.0877 51.3727 29.25 78.296C29.4142 105.219 51.371 126.912 78.2943 126.75C105.218 126.586 126.911 104.629 126.748 77.7057C126.586 50.7805 104.627 29.0876 77.7039 29.2499ZM78.2463 118.56C55.845 118.697 37.5744 100.648 37.4397 78.2462C37.3032 55.8449 55.3524 37.5762 77.7537 37.4397C100.155 37.3031 118.426 55.3523 118.56 77.7536C118.697 100.155 100.648 118.426 78.2463 118.56Z" fill="#F4D242"/>
        <path d="M86.9083 66.4168H81.6299C83.1206 67.6105 84.0653 69.2008 84.4139 71.1897H86.9083C87.5079 71.1897 87.9931 71.6749 87.9931 72.2745V74.28C87.9931 74.8796 87.5079 75.3648 86.9083 75.3648H84.4638C83.9177 79.1433 81.9786 81.5306 79.1927 83.0712L86.056 92.0136C86.6039 92.7276 86.0947 93.7608 85.1944 93.7608H78.4086C78.0581 93.7608 77.7297 93.5911 77.5249 93.307L71.3868 84.7132H69.0916C68.492 84.7132 68.0068 84.228 68.0068 83.6283V79.0381C68.0068 78.4385 68.492 77.9533 69.0916 77.9533H71.0879C73.573 77.9533 75.1652 77.1083 75.8608 75.3685H69.0898C68.4902 75.3685 68.005 74.8833 68.005 74.2837V72.2745C68.005 71.6749 68.4902 71.1897 69.0898 71.1897H75.9087C75.263 69.5495 73.621 69.0016 71.086 69.0016H69.0898C68.4902 69.0016 68.005 68.5164 68.005 67.9168V63.3265C68.005 62.7269 68.4902 62.2417 69.0898 62.2417H86.9065C87.5061 62.2417 87.9913 62.7269 87.9913 63.3265V65.332C87.9932 65.9298 87.5079 66.4168 86.9083 66.4168Z" fill="#F4D242"/>
    </g>
    <g opacity="0.2">
        <circle cx="78" cy="77.9999" r="56.1136" stroke="#F4D242" stroke-width="3"/>
        <circle opacity="0.5" cx="78" cy="78" r="66.75" stroke="#F4D242" stroke-width="3"/>
        <circle opacity="0.2" cx="78" cy="78" r="76.5" stroke="#F4D242" stroke-width="3"/>
    </g>
    <defs>
        <clipPath id="clip0_1019_2790">
            <rect width="97.5" height="97.5" fill="white" transform="translate(29.25 29.25)"/>
        </clipPath>
    </defs>
</svg>
