<svg width="30" height="39" viewBox="0 0 30 39" fill="none" xmlns="http://www.w3.org/2000/svg">
    <path d="M3.1945 38.245C2.82977 38.1274 2.44697 38.047 2.10256 37.884C0.753175 37.2482 -0.00112793 36.1943 1.26598e-06 34.6176C0.00338885 26.0401 1.26597e-06 17.4626 0.00225966 8.8851C0.00338885 6.74131 1.61814 5.04467 3.70376 5.00508C4.80021 4.98412 5.89779 5.00158 7.05748 5.00158C7.05748 4.56491 7.05635 4.14919 7.05748 3.73231C7.0586 3.03129 7.29912 2.75764 7.9868 2.74018C8.75917 2.72038 9.53154 2.72853 10.3039 2.73435C10.4902 2.73552 10.6009 2.69593 10.6924 2.4968C11.4523 0.836261 12.7339 -0.0138042 14.5136 0.00016952C16.283 0.0141432 17.6256 0.769886 18.3754 2.49447C18.4228 2.60393 18.5967 2.71689 18.7153 2.72038C19.4391 2.74134 20.1641 2.7262 20.8879 2.73435C21.0911 2.73668 21.3012 2.74716 21.4965 2.80073C21.9098 2.91368 22.0724 3.14425 22.0792 3.58325C22.0859 4.04089 22.0803 4.49969 22.0803 5.00042C22.5071 5.00042 22.9024 4.9946 23.2976 5.00158C24.2021 5.01905 25.1144 4.96548 26.0076 5.08077C27.7703 5.30668 29.1321 6.94043 29.1333 8.77331C29.1412 17.4382 29.1412 26.103 29.1333 34.7679C29.1321 36.4435 27.916 37.8327 26.2154 38.167C26.1228 38.1856 26.0347 38.2182 25.9433 38.245C18.3607 38.245 10.7782 38.245 3.1945 38.245ZM7.05748 6.87406C6.97166 6.84611 6.94907 6.83214 6.92649 6.83214C5.93731 6.82864 4.94701 6.82282 3.9567 6.82398C2.55537 6.82631 1.75703 7.65076 1.75703 9.09354C1.75703 17.5465 1.75703 25.9982 1.75703 34.4511C1.75703 34.5513 1.7559 34.6502 1.75816 34.7504C1.77284 35.3012 2.00884 35.7251 2.44923 36.0336C2.87493 36.3317 3.35371 36.4272 3.85846 36.4272C10.9927 36.4261 18.127 36.4272 25.2612 36.4249C25.4656 36.4249 25.6723 36.4086 25.8733 36.3748C26.8353 36.2083 27.3796 35.5446 27.3796 34.5454C27.3796 26.0308 27.3807 17.5162 27.3796 9.00039C27.3796 7.70316 26.5643 6.84378 25.3064 6.82631C24.5702 6.81583 23.8339 6.82398 23.0977 6.82398C22.7736 6.82398 22.4507 6.82398 22.1492 6.82398C22.1153 6.8857 22.0938 6.90666 22.0938 6.92762C22.0882 7.54945 22.0826 8.17128 22.0814 8.79427C22.0792 9.64667 21.7382 10.01 20.9263 10.01C16.6771 10.0111 12.4279 10.0111 8.17877 10.01C7.39398 10.01 7.06086 9.66181 7.0586 8.849C7.05635 8.18991 7.05748 7.53198 7.05748 6.87406ZM20.2905 4.54977C19.5362 4.54977 18.8135 4.54977 18.092 4.54977C17.3433 4.54977 17.0825 4.34598 16.8804 3.60072C16.554 2.40481 15.4937 1.61064 14.3385 1.69914C13.2906 1.77948 12.4144 2.56085 12.1072 3.68922C11.9379 4.31105 11.6375 4.54744 11.0108 4.54977C10.7816 4.55093 10.5523 4.54977 10.3231 4.54977C9.83304 4.54977 9.34297 4.54977 8.86306 4.54977C8.86306 5.79226 8.86306 6.98002 8.86306 8.17012C12.6865 8.17012 16.4817 8.17012 20.2905 8.17012C20.2905 6.96372 20.2905 5.78294 20.2905 4.54977Z" fill="#76A36C"/>
    <path d="M18.7593 15.0193C20.4113 15.0193 22.0645 15.0181 23.7165 15.0204C24.2246 15.0216 24.5747 15.2673 24.691 15.6877C24.8299 16.1931 24.5194 16.7183 24.0146 16.8137C23.8622 16.8428 23.7029 16.844 23.546 16.844C20.3617 16.8452 17.1773 16.8452 13.9941 16.844C13.862 16.844 13.7276 16.8452 13.5966 16.8277C13.119 16.7648 12.8085 16.4003 12.8141 15.9183C12.8198 15.4455 13.1484 15.0682 13.6215 15.0286C13.9331 15.003 14.2482 15.0193 14.5621 15.0193C15.9612 15.0193 17.3603 15.0193 18.7593 15.0193Z" fill="#76A36C"/>
    <path d="M18.7921 29.5875C20.3967 29.5875 22.0001 29.5852 23.6047 29.5898C23.7831 29.5898 23.9694 29.6026 24.1388 29.6574C24.5092 29.7761 24.7339 30.1441 24.7158 30.5505C24.6978 30.9534 24.4358 31.2899 24.0519 31.3761C23.9006 31.4099 23.7413 31.4192 23.5855 31.4192C20.3775 31.4215 17.1694 31.4215 13.9603 31.4192C13.8157 31.4192 13.6701 31.4134 13.5289 31.3866C13.1055 31.3074 12.8243 30.9639 12.8141 30.5296C12.804 30.0894 13.058 29.7331 13.4781 29.6294C13.6283 29.5922 13.7886 29.5887 13.9433 29.5887C15.5603 29.5863 17.1762 29.5875 18.7921 29.5875Z" fill="#76A36C"/>
    <path d="M18.7763 22.3135C20.4283 22.3135 22.0814 22.3112 23.7335 22.3158C24.28 22.317 24.6368 22.6011 24.7091 23.0634C24.7926 23.6037 24.4279 24.0812 23.8915 24.1219C23.6996 24.1359 23.5054 24.1278 23.3134 24.1278C20.1539 24.1278 16.9933 24.1289 13.8338 24.1266C13.2173 24.1266 12.8367 23.7994 12.8164 23.2626C12.7949 22.7048 13.1585 22.3217 13.748 22.3158C14.9302 22.3065 16.1114 22.3123 17.2937 22.3123C17.7871 22.3135 18.2817 22.3135 18.7763 22.3135Z" fill="#76A36C"/>
    <path d="M7.14106 23.0496C8.01732 22.1868 8.89245 21.3157 9.78112 20.4599C9.9426 20.305 10.1459 20.1617 10.3548 20.1012C10.7398 19.9894 11.135 20.2072 11.3281 20.5693C11.5257 20.9396 11.4715 21.3181 11.1362 21.6499C10.1447 22.6316 9.14539 23.6039 8.14831 24.5786C7.99135 24.7323 7.83891 24.8942 7.67179 25.0362C7.29238 25.3576 6.84408 25.3518 6.49742 24.9978C5.88201 24.3678 5.27337 23.7285 4.67942 23.0764C4.32259 22.684 4.34066 22.1041 4.68393 21.7641C5.03624 21.4147 5.5489 21.445 5.94524 21.8444C6.14398 22.0435 6.32804 22.2578 6.52565 22.4581C6.71649 22.6491 6.9141 22.8307 7.14106 23.0496Z" fill="#76A36C"/>
    <path d="M7.13992 15.7621C8.04215 14.876 8.93986 13.9921 9.84096 13.1118C10.2102 12.7508 10.5817 12.6856 10.9555 12.901C11.4896 13.2084 11.6161 13.8768 11.1779 14.3159C10.0194 15.4757 8.84501 16.6192 7.66161 17.7534C7.3014 18.0992 6.8452 18.0666 6.49402 17.7056C5.89668 17.092 5.30611 16.4701 4.72457 15.839C4.33049 15.4116 4.32597 14.8282 4.68957 14.4719C5.03736 14.1307 5.57938 14.1784 5.97798 14.5907C6.34384 14.9691 6.70293 15.3546 7.0654 15.7353C7.07443 15.7447 7.08798 15.7447 7.13992 15.7621Z" fill="#76A36C"/>
    <path d="M7.17038 30.3042C8.04438 29.446 8.95 28.5528 9.859 27.6655C10.2486 27.2847 10.6844 27.2486 11.0672 27.5491C11.511 27.8972 11.5867 28.4795 11.1869 28.8789C10.0284 30.0387 8.85401 31.1834 7.67288 32.3176C7.30024 32.6751 6.84292 32.6378 6.47819 32.2605C5.891 31.6538 5.30834 31.0413 4.73358 30.4207C4.33723 29.9921 4.32368 29.4134 4.68164 29.0512C5.03282 28.6961 5.57483 28.7543 5.99828 29.177C6.36978 29.5496 6.75484 29.906 7.17038 30.3042Z" fill="#76A36C"/>
</svg>
