<svg width="17" height="17" viewBox="0 0 17 17" fill="none" xmlns="http://www.w3.org/2000/svg">
<path d="M0 11.6891C0.0102009 11.6643 0.0243935 11.6408 0.0306027 11.6151C0.174302 11.0328 0.638665 10.6431 1.23431 10.6382C2.36838 10.6293 3.50246 10.6302 4.63609 10.6377C5.16166 10.6413 5.56482 11.0581 5.56437 11.568C5.56393 12.0678 5.16388 12.4753 4.64363 12.489C4.23471 12.5001 3.8249 12.4926 3.41553 12.4935C3.35654 12.4935 3.29711 12.4935 3.1951 12.4935C3.26252 12.5808 3.30509 12.6411 3.35255 12.6975C4.76959 14.3674 6.57515 15.1948 8.76302 15.1305C11.9484 15.0365 14.6676 12.5489 15.0729 9.38994C15.1266 8.97268 15.3284 8.66982 15.7364 8.54433C16.1143 8.42816 16.4478 8.53059 16.7122 8.82724C16.9091 9.04806 16.9632 9.31368 16.9255 9.60101C16.4514 13.2415 13.6874 16.1646 10.0608 16.8546C9.76271 16.9113 9.45801 16.9317 9.15687 16.9703C9.1032 16.9774 9.04998 16.9898 8.99675 17C8.66456 17 8.33281 17 8.00061 17C7.79305 16.9752 7.58504 16.9548 7.37836 16.9246C5.20379 16.6098 3.39912 15.6218 1.97498 13.9461C1.94571 13.9116 1.93684 13.8601 1.91866 13.8162C1.89914 13.8344 1.87918 13.8521 1.85967 13.8703C1.85967 14.108 1.85967 14.3452 1.85967 14.5829C1.85967 14.8206 1.86277 15.0582 1.85834 15.2959C1.84991 15.7425 1.51018 16.1349 1.08085 16.201C0.631569 16.2701 0.216437 16.0218 0.0594314 15.5904C0.0408036 15.5394 0.0199583 15.4897 0 15.4391C0 14.1896 0 12.9396 0 11.6891Z" fill="#969696"/>
<path d="M15.1385 3.13883C15.1385 2.68743 15.1332 2.23602 15.1416 1.78506C15.1442 1.64937 15.1638 1.50703 15.2112 1.38065C15.3678 0.961174 15.7896 0.730593 16.2362 0.803315C16.6535 0.871159 16.9919 1.25029 16.9942 1.6875C17.0008 2.84883 17.0044 4.01061 16.9928 5.17194C16.9866 5.77677 16.516 6.32351 15.9142 6.34169C14.7043 6.3785 13.4921 6.37406 12.2818 6.35012C11.8028 6.34036 11.4679 5.94793 11.4355 5.48234C11.4054 5.05266 11.7056 4.64515 12.1394 4.53873C12.2348 4.51523 12.3363 4.51345 12.4352 4.51256C12.8668 4.50946 13.2983 4.51035 13.7294 4.50946C13.7392 4.50946 13.7489 4.50281 13.7822 4.49084C13.7467 4.44029 13.7166 4.39195 13.6806 4.3485C12.4809 2.89672 10.949 2.05111 9.06893 1.89591C5.70929 1.61833 2.74703 3.81506 2.0139 7.10128C1.966 7.31678 1.94072 7.53717 1.8977 7.75356C1.80278 8.2298 1.36592 8.55039 0.890913 8.49807C0.413688 8.44575 0.0402458 8.04045 0.0673003 7.55757C0.101895 6.93056 0.247812 6.32041 0.466023 5.7342C1.54954 2.82666 3.5804 0.909736 6.61052 0.23573C9.89476 -0.495034 12.6991 0.487596 14.9633 2.98364C15.0112 3.03685 15.056 3.09272 15.1025 3.14726C15.1145 3.14416 15.1265 3.14149 15.1385 3.13883Z" fill="#969696"/>
</svg>
